<svg width="24" height="24" viewBox="0 0 24 24" fill="none" xmlns="http://www.w3.org/2000/svg">
<g clip-path="url(#clip0_55072_5172)">
<path fill-rule="evenodd" clip-rule="evenodd" d="M3.75 11.1093C3.75 7.91801 6.39737 5.19465 9.72302 5.19465C12.9855 5.19465 15.7064 7.76631 15.7064 11.0134V20.4073C15.7064 20.6555 15.9692 20.8211 16.2019 20.7197L19.8144 19.1443C20.0252 19.0524 20.1608 18.8485 20.1608 18.6237V9.16546C20.1608 5.97418 17.5625 3.30386 14.2843 3.25082C10.936 3.19664 8.20444 5.82266 8.20444 9.06961V17.6895C8.20444 17.9143 8.06882 18.1182 7.85814 18.2101L4.24555 19.7871C4.01296 19.8888 3.75 19.7231 3.75 19.4749L3.75 11.1093Z" fill="#002C2C"/>
</g>
<defs>
<clipPath id="clip0_55072_5172">
<rect width="24" height="24" fill="white"/>
</clipPath>
</defs>
</svg>
