<svg width="24" height="24" viewBox="0 0 24 24" fill="none" xmlns="http://www.w3.org/2000/svg">
<g clip-path="url(#clip0_55072_5175)">
<path d="M20.2611 8.18024C19.3311 7.23695 17.795 7.39972 16.8879 8.36298C15.7095 9.60147 14.7921 10.0639 13.6977 10.018C12.1734 9.95141 11.4208 8.771 10.6372 7.28171C9.82476 5.7251 8.57395 4.85986 7.01303 4.85986C4.56058 4.85986 3.08984 6.84743 3.08984 9.06361C3.08984 12.4742 5.48612 14.514 7.14536 15.3737C8.52332 16.0913 10.0576 16.3913 11.4204 16.425C11.3402 17.2421 11.1014 18.3189 10.8349 19.0799H13.6419C13.3654 18.3186 13.1196 17.1533 13.0453 16.3358C17.1566 15.8024 19.1082 13.9321 20.1779 12.1539C20.6577 11.3745 20.9142 10.5633 20.9098 9.83562C20.9065 9.19752 20.7043 8.61823 20.2611 8.18024ZM7.03373 10.3132C6.65372 10.3371 6.27978 10.2089 5.99419 9.95688C5.7086 9.70484 5.53475 9.34959 5.51088 8.96928C5.48701 8.58896 5.61508 8.21473 5.86691 7.92891C6.11874 7.6431 6.47371 7.46911 6.85372 7.44522C7.6425 7.39343 8.32039 7.99676 8.36992 8.78913C8.38236 8.97704 8.35765 9.16557 8.2972 9.34392C8.23676 9.52226 8.14176 9.68693 8.01765 9.82849C7.89354 9.97005 7.74275 10.0857 7.57392 10.1689C7.40509 10.2521 7.22152 10.3011 7.03373 10.3132Z" fill="#4AB154"/>
</g>
<defs>
<clipPath id="clip0_55072_5175">
<rect width="24" height="24" fill="white"/>
</clipPath>
</defs>
</svg>
