<svg width="24" height="24" viewBox="0 0 24 24" fill="none" xmlns="http://www.w3.org/2000/svg">
<g clip-path="url(#clip0_55072_5159)">
<path d="M9.41074 12.2132C9.15901 9.90845 11.5723 8.05784 14.8045 8.08248C18.0369 8.10722 20.8696 9.99731 21.1213 12.3019C21.3779 14.6066 18.9598 16.4572 15.7274 16.4326C12.495 16.408 9.66238 14.5178 9.41074 12.2132ZM21.7233 12.9287C21.4322 10.0713 18.1752 7.72713 14.4542 7.69755C10.7332 7.66796 7.95001 9.95783 8.24112 12.8201C8.53234 15.6775 11.7894 18.0217 15.5103 18.0513C19.2312 18.0809 22.0145 15.791 21.7233 12.9287Z" fill="#F5B083"/>
<path d="M16.1074 18.1055C14.2766 20.0204 11.3303 20.1782 9.53405 18.4609C7.73776 16.7385 7.76735 13.7923 9.60312 11.8775C11.4389 9.96272 14.3802 9.80479 16.1764 11.5272C17.9727 13.2494 17.9431 16.1957 16.1074 18.1105M9.312 11.8183C7.18006 14.044 7.14553 17.4689 9.23304 19.4676C11.3205 21.4663 14.7403 21.2837 16.8723 19.053C19.0041 16.8274 19.0387 13.4024 16.9512 11.4038C14.8637 9.40502 11.4438 9.58759 9.312 11.8183Z" fill="#EE7B3E"/>
<path d="M9.50463 4.64751C13.3193 3.21635 17.0895 4.66225 17.9285 7.87505C18.7674 11.0877 16.3542 14.8483 12.5445 16.2794C8.72984 17.7106 4.95954 16.2646 4.12062 13.0519C3.2817 9.83916 5.69486 6.07866 9.50463 4.64751ZM5.96629 5.8763C2.00848 9.01003 1.00173 13.5453 3.7159 16.0129C6.43018 18.4804 11.8388 17.9376 15.7966 14.8038C19.7544 11.6701 20.7611 7.12984 18.0469 4.6672C15.3327 2.19971 9.92409 2.74257 5.96629 5.8763Z" fill="#EA5515"/>
</g>
<defs>
<clipPath id="clip0_55072_5159">
<rect width="24" height="24" fill="white"/>
</clipPath>
</defs>
</svg>
