<svg width="24" height="24" viewBox="0 0 24 24" fill="none" xmlns="http://www.w3.org/2000/svg">
<g clip-path="url(#clip0_55072_5182)">
<g clip-path="url(#clip1_55072_5182)">
<path d="M12 21.3291C16.9706 21.3291 21 17.2997 21 12.3291C21 7.35854 16.9706 3.3291 12 3.3291C7.02944 3.3291 3 7.35854 3 12.3291C3 17.2997 7.02944 21.3291 12 21.3291Z" fill="#113C98"/>
<path d="M12.6803 11.0955L14.5676 12.3884L11.0652 14.7131L12.0773 15.3107L16.4324 12.3533L13.6334 10.4304L12.6794 11.0955H12.6803ZM12.1524 11.0982L13.6325 10.0659L16.9647 12.3546L12.0885 15.6662L10.5005 14.7284L14.0307 12.3852L12.1524 11.0982Z" fill="white"/>
<path fill-rule="evenodd" clip-rule="evenodd" d="M10.2667 12.8674L9.49949 12.3373L10.1821 11.7987L10.9489 12.4026L10.2658 12.8674H10.2667ZM11.8867 9.21973L7.28369 12.3211L10.2172 14.3776L13.7412 12.0039L12.6909 11.2848L11.8872 11.7987L11.1672 11.2438L12.9667 9.93793C12.9663 9.93793 11.8867 9.21973 11.8867 9.21973Z" fill="white"/>
<path fill-rule="evenodd" clip-rule="evenodd" d="M11.9832 7.53809L4.83447 12.3288L11.9836 17.1204L19.1656 12.3333L11.9832 7.53809ZM6.07422 12.3288L11.9841 8.36834L17.9218 12.3324L11.9841 16.2901L6.07422 12.3288Z" fill="white"/>
</g>
</g>
<defs>
<clipPath id="clip0_55072_5182">
<rect width="24" height="24" fill="white"/>
</clipPath>
<clipPath id="clip1_55072_5182">
<rect width="18" height="18" fill="white" transform="translate(3 3.3291)"/>
</clipPath>
</defs>
</svg>
