<svg width="24" height="24" viewBox="0 0 24 24" fill="none" xmlns="http://www.w3.org/2000/svg">
<g clip-path="url(#clip0_55072_5179)">
<g clip-path="url(#clip1_55072_5179)">
<path d="M20.9918 12.5103L20.8328 12.4117C20.2879 11.8578 19.5158 11.6225 18.494 11.6832C17.6463 11.7363 16.9651 12.0778 16.4504 12.3889C16.4504 12.3813 16.4504 12.3737 16.4504 12.3661C16.4504 12.1006 16.4806 11.8046 16.5109 11.5238C16.5412 11.2355 16.5714 10.9472 16.5714 10.674C16.5714 10.4009 16.5412 10.1277 16.4428 9.90005C16.4201 9.83932 16.3671 9.80892 16.299 9.80892C16.0265 9.80892 15.4891 10.0063 15.3605 10.1201L15.2923 10.2718C15.2923 10.5753 15.2242 11.4328 15.1561 11.5314L15.1182 11.6377C15.0047 12.8593 14.9971 13.9292 15.1031 14.8474C15.1182 14.9385 15.2923 15.075 15.4285 15.1281C15.58 15.1813 16.0492 15.0598 16.3141 14.9537L16.4126 14.9385C16.4958 14.9309 16.5487 14.855 16.5412 14.7564V14.4908C16.738 13.694 17.5251 12.7531 18.4561 12.6089C18.9859 12.5255 19.4023 12.6621 19.7277 13.0187C19.7731 13.087 19.8715 13.6561 19.5234 14.3087C19.266 14.7943 18.7438 15.2041 18.0701 15.4621C17.4268 15.7049 16.7152 15.8035 15.8449 15.7731C15.807 15.7504 15.0274 15.2192 15.0274 15.2192C14.3311 14.7336 13.4682 14.1189 12.6886 13.823C12.5523 13.7699 12.3026 13.565 12.1588 13.4436L12.0754 13.3753C11.6213 13.0111 10.766 12.442 10.0773 11.9791C10.0773 11.9791 9.76696 11.7666 9.70641 11.7287C9.70641 11.706 9.70641 11.6529 9.70641 11.6529C9.72911 11.6301 10.1605 11.3721 10.1605 11.3721C10.766 11.0154 11.0461 10.8409 11.1067 10.7499C11.0915 10.7651 11.1899 10.7044 11.1899 10.7044L12.6961 9.85452C14.1418 9.05771 15.7767 8.15473 16.632 7.26696L16.6698 7.1304L16.6925 7.00895C16.7531 6.81927 16.7531 6.67511 16.7077 6.50062C16.6925 6.4551 16.6471 6.39438 16.5941 6.38678C15.9281 6.31846 15.0577 6.72063 14.2705 7.46424C14.0964 7.63121 13.945 7.71465 13.7861 7.79817L13.665 7.86641C12.7945 8.35962 10.8418 9.58132 9.8199 10.2339C9.88807 9.13363 10.0924 7.56288 10.3422 6.25022L10.3119 6.09086L10.206 5.89357L10.1303 5.74941H10.1076C9.90323 5.64317 9.73665 5.68109 9.61554 5.71141L9.41118 5.78733L9.13874 5.88597C9.08572 5.89357 9.04787 5.93149 9.02517 5.98461C8.53321 7.16832 8.13203 9.11843 8.03362 10.674C7.05724 10.0518 6.15656 9.60412 5.70999 9.38404H5.69483L5.64182 9.36884C5.48286 9.34612 5.28612 9.23227 5.10446 9.11843C5.08177 9.10331 4.73361 8.87563 4.73361 8.87563L4.16593 8.51138L4.01451 8.47346C3.7723 8.51898 3.30302 8.83011 3.16678 9.05019C3.15165 9.08051 3.14408 9.11083 3.14408 9.14123C3.14408 9.18675 3.15921 9.23227 3.16678 9.27779L3.18949 9.39164L3.21977 9.45988C3.49225 9.74068 4.18101 10.2036 4.84709 10.5677L5.62674 10.9851L6.82264 11.6377L7.027 11.797L7.1708 11.8805C7.1708 11.8805 7.18596 11.8881 7.1935 11.8957C6.87558 12.1081 5.02121 13.3526 5.02121 13.3526L3.87827 14.1114C3.77231 14.1872 3.31817 14.3845 3.21977 14.43C2.97 14.5287 2.78835 14.6881 2.70509 14.855L2.6748 14.9233L2.70509 14.9688L2.79591 15.0371L2.90944 15.113L3.03812 15.2041L3.1592 15.2192C3.356 15.2268 3.65877 15.113 4.21133 14.8701C4.71845 14.6425 6.11117 13.8079 6.70154 13.4436L6.95129 13.2919C7.05724 13.2995 7.1708 13.2159 7.27675 13.1325C7.39786 13.0339 7.65523 12.8745 7.81419 12.8063C7.81419 12.8063 7.91252 12.7531 7.99577 12.7076C7.99577 12.7379 7.99577 12.7759 7.99577 12.7759C8.01855 14.597 8.12449 15.9173 8.32123 16.9341V16.9493L8.34401 16.9872C8.44234 17.1314 8.5559 17.5639 8.65431 17.9433L8.88137 18.7021L8.94192 18.7704C9.07056 18.8539 9.4642 19.0056 9.72911 18.9753H9.7972L9.84267 18.8766C9.86537 18.7628 9.87291 18.649 9.87291 18.5276C9.87291 18.391 9.86537 18.2316 9.85021 18.0496L9.83506 17.7764C9.75181 16.5092 9.66855 14.6729 9.66855 13.4512V13.3526C9.88807 13.4892 10.8266 14.081 10.8266 14.081C12.4312 15.1205 14.8457 16.6989 16.3065 17.1163C16.3822 17.139 16.4655 17.1163 16.5185 17.0707L16.7456 16.9265L16.7909 16.9114C16.8742 16.8734 16.9348 16.7292 16.9424 16.5774C18.1761 16.5167 19.8943 16.0387 20.8101 14.8777C21.1658 14.43 21.3248 13.8761 21.3248 13.4057C21.3248 13.0187 21.2189 12.6848 21.022 12.5027L20.9918 12.5103Z" fill="#F8B500"/>
</g>
</g>
<defs>
<clipPath id="clip0_55072_5179">
<rect width="24" height="24" fill="white"/>
</clipPath>
<clipPath id="clip1_55072_5179">
<rect width="20" height="20" fill="white" transform="translate(2 2.3291)"/>
</clipPath>
</defs>
</svg>
