<svg width="24" height="24" viewBox="0 0 24 24" fill="none" xmlns="http://www.w3.org/2000/svg">
<g clip-path="url(#clip0_55072_5157)">
<path d="M2.89976 12.232C2.89873 12.1987 2.90438 12.1657 2.91637 12.1347C2.92837 12.1037 2.94646 12.0754 2.96958 12.0516C2.9927 12.0277 3.02037 12.0087 3.05096 11.9957C3.08155 11.9828 3.11444 11.9761 3.14766 11.976L7.85208 11.9468C7.99211 11.944 8.1043 12.0556 8.1043 12.198C8.1081 12.2287 8.10093 12.2627 8.08701 12.294L5.77197 18.0517C5.73507 18.1398 5.64649 18.207 5.54136 18.207C5.4724 18.207 5.40998 18.1763 5.3639 18.136C5.3639 18.1322 5.35684 18.1302 5.35684 18.1254C3.89896 16.5798 2.97695 14.5193 2.89502 12.243C2.89502 12.2387 2.89976 12.2349 2.89976 12.2349V12.232Z" fill="url(#paint0_linear_55072_5157)"/>
<path d="M7.88056 19.7428L10.6712 12.8039C10.6744 12.8011 10.6744 12.7973 10.6779 12.7933C10.8721 12.2871 11.3697 11.9217 11.9482 11.9195C12.4925 11.9156 12.9623 12.2286 13.1894 12.6861L16.1243 19.6882V19.6911C16.1358 19.7197 16.1431 19.7524 16.1431 19.7869C16.1431 19.879 16.0947 19.9614 16.0193 20.0044C16.0156 20.0093 16.0131 20.0093 16.0088 20.0112C14.8083 20.6181 13.445 20.9604 12.009 20.9757C10.5695 20.9853 9.21021 20.6583 7.99844 20.0668H7.9956C7.95494 20.0454 7.92081 20.0135 7.89684 19.9744C7.87287 19.9352 7.85995 19.8903 7.85947 19.8444C7.85859 19.812 7.86392 19.7798 7.87518 19.7495C7.87528 19.7496 7.88056 19.7467 7.88056 19.7428Z" fill="url(#paint1_linear_55072_5157)"/>
<path d="M15.8086 12.2432V12.2351C15.7953 12.205 15.7914 12.1747 15.7881 12.1445C15.7881 12.0046 15.9007 11.8885 16.0398 11.8885L20.7457 11.855C20.8118 11.8549 20.8753 11.8811 20.9223 11.9277C20.9693 11.9743 20.9959 12.0376 20.9963 12.1037C20.9998 12.1066 20.9998 12.1101 20.9998 12.1101C20.9533 14.3901 20.0611 16.4679 18.6249 18.0364C18.621 18.0364 18.621 18.0403 18.621 18.0403C18.5726 18.0843 18.5093 18.1189 18.4379 18.1189C18.3882 18.1189 18.3396 18.1041 18.2983 18.0764C18.257 18.0487 18.2248 18.0094 18.2058 17.9635L15.8086 12.2432Z" fill="url(#paint2_linear_55072_5157)"/>
<path d="M20.2609 9.26948L14.7512 9.30775H14.7292C14.6833 9.30421 14.6393 9.28794 14.6021 9.26076C14.5649 9.23358 14.536 9.19658 14.5187 9.15391L14.0762 8.09493C13.4699 6.5296 13.1797 5.0344 13.184 3.6633L13.1797 3.24099C13.1797 3.10149 13.2895 2.98877 13.4291 2.98877H13.4626C13.4659 2.99109 13.4727 2.99109 13.4727 2.99109C16.7493 3.5471 19.4282 5.86182 20.4969 8.93669L20.5002 8.94007C20.5107 8.96305 20.5132 8.99079 20.5132 9.01862C20.5133 9.05172 20.5068 9.08451 20.4942 9.11509C20.4815 9.14567 20.4629 9.17344 20.4395 9.19677C20.416 9.22011 20.3881 9.23855 20.3575 9.25103C20.3268 9.26351 20.294 9.26978 20.2609 9.26948Z" fill="url(#paint3_linear_55072_5157)"/>
<path d="M9.76468 8.12644L9.339 9.19175C9.30599 9.26746 9.23745 9.3284 9.15637 9.34507H9.13349C9.12199 9.34939 9.11187 9.34939 9.11187 9.34939L3.5968 9.38967C3.52908 9.39018 3.46389 9.364 3.41534 9.31679C3.36679 9.26958 3.33879 9.20515 3.3374 9.13744C3.3374 9.11056 3.34457 9.08314 3.35185 9.06036V9.05604C4.37867 5.972 7.02786 3.61183 10.2969 3.01301H10.304C10.3174 3.00879 10.33 3.00879 10.3371 3.00879C10.4756 3.00879 10.5925 3.11856 10.5925 3.25848L10.5964 3.68321H10.5925C10.6167 5.05589 10.3487 6.55405 9.76468 8.12644Z" fill="url(#paint4_linear_55072_5157)"/>
</g>
<defs>
<linearGradient id="paint0_linear_55072_5157" x1="5.43673" y1="3.04404" x2="5.55938" y2="20.8196" gradientUnits="userSpaceOnUse">
<stop stop-color="#014DA1"/>
<stop offset="1" stop-color="#00ADEE"/>
</linearGradient>
<linearGradient id="paint1_linear_55072_5157" x1="11.8853" y1="3.00001" x2="12.0079" y2="20.7764" gradientUnits="userSpaceOnUse">
<stop stop-color="#014DA1"/>
<stop offset="1" stop-color="#00ADEE"/>
</linearGradient>
<linearGradient id="paint2_linear_55072_5157" x1="18.3305" y1="2.95435" x2="18.4532" y2="20.732" gradientUnits="userSpaceOnUse">
<stop stop-color="#014DA1"/>
<stop offset="1" stop-color="#00ADEE"/>
</linearGradient>
<linearGradient id="paint3_linear_55072_5157" x1="16.8246" y1="2.96535" x2="16.9471" y2="20.7228" gradientUnits="userSpaceOnUse">
<stop stop-color="#014DA1"/>
<stop offset="1" stop-color="#00ADEE"/>
</linearGradient>
<linearGradient id="paint4_linear_55072_5157" x1="6.94361" y1="3.03219" x2="7.06626" y2="20.807" gradientUnits="userSpaceOnUse">
<stop stop-color="#014DA1"/>
<stop offset="1" stop-color="#00ADEE"/>
</linearGradient>
<clipPath id="clip0_55072_5157">
<rect width="24" height="24" fill="white"/>
</clipPath>
</defs>
</svg>
