<svg width="24" height="24" viewBox="0 0 24 24" fill="none" xmlns="http://www.w3.org/2000/svg">
<g clip-path="url(#clip0_55072_5156)">
<path d="M7.23082 16.2129C6.52803 17.4235 4.97617 17.8354 3.76576 17.1326C2.55421 16.4291 2.14227 14.8772 2.84601 13.6661L8.76638 3.60305C9.46917 2.39207 11.0205 1.98051 12.2324 2.68349C13.4428 3.38685 13.8544 4.93871 13.1514 6.1495L7.23082 16.2129Z" fill="#009944"/>
<path d="M15.5342 20.8768C14.8308 22.088 13.2795 22.4994 12.0682 21.7966C10.8576 21.0932 10.4456 19.5408 11.149 18.33L17.0692 8.26698C17.772 7.056 19.3242 6.64388 20.5352 7.34743C21.7456 8.05079 22.1577 9.60265 21.4544 10.814L15.5342 20.8768Z" fill="#E60013"/>
<path d="M3.43213 12.9995C3.43213 12.9995 7.28866 8.51394 12.3776 9.77343C17.4661 11.0318 18.3309 14.1016 18.3309 14.1016L14.0234 16.6501C14.0234 16.6501 13.0904 15.0791 10.6993 14.6772C9.13573 14.4163 8.11802 15.6946 6.59648 16.9268L3.43213 12.9995Z" fill="#00A1E9"/>
<path d="M18.5272 15.0797C18.5272 16.479 17.3929 17.6123 15.9945 17.6123C14.5962 17.6123 13.4619 16.479 13.4619 15.0797C13.4619 13.6802 14.5962 12.5474 15.9945 12.5474C17.3929 12.5474 18.5272 13.6802 18.5272 15.0797Z" fill="#F6AB00"/>
<path d="M7.56828 14.9386C7.56828 16.3381 6.4346 17.4712 5.03566 17.4712C3.63766 17.4712 2.50342 16.3381 2.50342 14.9386C2.50342 13.5396 3.63766 12.4063 5.03566 12.4063C6.4346 12.4063 7.56828 13.5396 7.56828 14.9386Z" fill="#004098"/>
</g>
<defs>
<clipPath id="clip0_55072_5156">
<rect width="24" height="24" fill="white"/>
</clipPath>
</defs>
</svg>
