<svg width="24" height="24" viewBox="0 0 24 24" fill="none" xmlns="http://www.w3.org/2000/svg">
<path d="M20.0859 3.88428H3.85449V20.1157H20.0859V3.88428Z" fill="#F18321"/>
<path d="M19.3883 9.60847C18.9861 11.274 17.5419 12.1819 16.6928 12.6666L16.6562 12.6178C17.0053 12.3345 18.1998 11.4527 18.5815 9.99176L19.3883 9.60847Z" fill="white"/>
<path d="M13.5955 13.8198C13.611 13.8023 13.6265 13.7861 13.642 13.771L13.5933 13.8198H13.5955Z" fill="white"/>
<path d="M14.9705 13.3774H14.9699C14.89 13.4266 14.8086 13.475 14.7246 13.525C14.8086 13.475 14.891 13.4266 14.9705 13.3774Z" fill="white"/>
<path d="M11.9218 13.8456C11.9171 13.8438 11.7382 13.753 11.7382 13.753L11.7359 13.7521L11.7334 13.7505C11.6746 13.7163 11.536 13.6351 11.536 13.4988C11.5366 13.4335 11.562 13.3754 11.6088 13.3364C11.6656 13.2876 11.7536 13.27 11.8481 13.2872C11.9673 13.3058 12.104 13.3839 12.2542 13.5141L12.5111 13.0165C12.3388 12.8733 12.1714 12.7963 11.9228 12.752C11.6153 12.7062 11.3181 12.7724 11.1102 12.9317C10.9344 13.0677 10.825 13.2659 10.7964 13.506C10.7918 13.5455 10.7895 13.5852 10.7896 13.625C10.7896 13.7572 10.8166 13.8716 10.8718 13.9674C11.2471 13.9588 11.6416 13.94 12.0399 13.9071C12.0016 13.8844 11.9622 13.8639 11.9218 13.8456Z" fill="white"/>
<path d="M14.7621 12.7871C14.7473 12.891 14.6985 13.2176 14.6753 13.3773C15.1622 13.2425 15.7524 13.0484 16.2984 12.7871H14.7621Z" fill="white"/>
<path d="M14.9337 13.4151C14.8655 13.4379 14.7944 13.4604 14.7216 13.4835L14.6772 13.497C14.6482 13.5064 14.6185 13.5154 14.5887 13.5242C14.5729 13.5292 14.5569 13.5335 14.5413 13.5385C14.4391 13.569 14.3367 13.5983 14.2339 13.6264C14.2145 13.6318 14.1948 13.6378 14.1749 13.6431L14.0845 13.667L14.0186 13.6848C13.988 13.6922 13.9585 13.6998 13.9276 13.7078C13.9011 13.7145 13.8734 13.7215 13.846 13.7278L13.7014 13.763C13.6732 13.7697 13.6462 13.7767 13.6178 13.7828C13.6053 13.7855 13.5931 13.7884 13.5812 13.7914H13.5797C13.2978 13.8561 12.9979 13.9172 12.6797 13.9722C12.6724 13.9735 12.6651 13.9744 12.658 13.9758C12.6008 13.9857 12.5425 13.995 12.4839 14.0046C12.4693 14.0071 12.4556 14.0091 12.4411 14.0114C12.3796 14.0209 12.3174 14.0306 12.2551 14.04C12.2503 14.0405 12.2456 14.0414 12.2414 14.0421C11.8999 14.0926 11.5401 14.1354 11.163 14.169C11.1615 14.169 11.1598 14.169 11.1578 14.1694C11.1008 14.1746 11.0427 14.1793 10.9842 14.1838C10.9784 14.1841 10.972 14.1845 10.9659 14.1854L10.7897 14.1985C10.784 14.1985 10.7783 14.1992 10.773 14.1994C10.7126 14.2033 10.6518 14.2069 10.5912 14.2107C10.5866 14.2111 10.582 14.2113 10.5774 14.2122C10.515 14.2152 10.453 14.2188 10.3899 14.2215C10.3874 14.2215 10.3855 14.222 10.383 14.222C10.0653 14.2375 9.73683 14.2456 9.39767 14.2456L9.39838 14.2458L9.37102 14.2456C9.29658 14.2456 9.22125 14.2449 9.14556 14.2441C9.12957 14.2436 9.11358 14.2436 9.09759 14.2434C8.8182 14.2396 8.53891 14.2301 8.2599 14.2148H8.25404V14.2143C7.80497 14.1902 7.3567 14.1526 6.90983 14.1016L7.44211 13.5952C7.44211 13.5952 7.75231 13.6892 8.17924 13.7668C8.12537 13.4401 8.07101 13.1136 8.01615 12.7871H7.1813C7.13262 12.8924 6.18051 15.0637 6.06787 15.3123H6.73714L6.99777 14.6845L7.69546 14.6839C7.69546 14.6839 7.76333 15.2123 7.77896 15.3123H8.43899C8.42389 15.2305 8.36028 14.8498 8.28673 14.4073C8.75666 14.4334 9.22836 14.4391 9.66737 14.4321C9.69757 14.4825 9.70803 14.5424 9.69668 14.6002C9.69257 14.6274 9.68299 14.6535 9.66853 14.6768C9.65408 14.7002 9.63506 14.7203 9.61265 14.7359C9.52168 14.8004 9.39145 14.7862 9.30155 14.7706C9.08818 14.7328 8.91957 14.5693 8.78259 14.4341L8.45924 14.9674C8.71064 15.1988 8.98282 15.3401 9.27064 15.3806C9.56095 15.4248 9.84983 15.3586 10.0632 15.1992C10.2492 15.0603 10.3674 14.857 10.4034 14.6117C10.4152 14.5407 10.4198 14.4742 10.4166 14.4106C10.887 14.3903 11.2779 14.3606 11.5293 14.3383C11.6114 14.3992 11.654 14.4713 11.654 14.5535C11.654 14.5691 11.6519 14.5836 11.6499 14.6002C11.6455 14.6274 11.6358 14.6534 11.6212 14.6767C11.6066 14.7001 11.5876 14.7202 11.5652 14.7359C11.474 14.8004 11.3442 14.7862 11.2544 14.7706C11.0411 14.7328 10.8718 14.5693 10.7362 14.4341L10.412 14.9674C10.6639 15.1988 10.9355 15.3401 11.223 15.3806C11.514 15.4248 11.802 15.3586 12.0152 15.1992C12.2023 15.0603 12.3197 14.857 12.3558 14.6117C12.3789 14.4751 12.3737 14.3518 12.3418 14.242C12.4478 14.226 12.5502 14.2104 12.6488 14.1942C12.5962 14.5669 12.5434 14.9396 12.4903 15.3123H14.1022L14.1793 14.767H13.2024L13.269 14.3002H14.1547L14.2202 13.8385C14.2812 13.8194 14.3416 13.7988 14.4016 13.7767C14.4016 13.7767 14.7013 13.6856 15.0892 13.5402C15.0336 13.9356 14.8626 15.144 14.8387 15.3123H15.5371C15.5577 15.1625 15.8062 13.4151 15.8062 13.4151H16.3112C16.3264 13.3065 16.3744 12.9596 16.397 12.8022C16.1351 12.9494 15.6399 13.1805 14.9337 13.4151Z" fill="white"/>
<path d="M10.1686 13.9674C10.1026 13.9165 10.0306 13.8738 9.95423 13.8404C9.95118 13.8386 9.77229 13.7483 9.77229 13.7483L9.76853 13.7474L9.7662 13.7456C9.70687 13.7117 9.56885 13.6309 9.56885 13.4952C9.56938 13.4303 9.59502 13.3725 9.64108 13.3336C9.69934 13.285 9.78699 13.2676 9.88074 13.2847C9.99994 13.3032 10.1371 13.381 10.2878 13.5105C10.3588 13.3725 10.4957 13.1096 10.5438 13.0153C10.3715 12.8728 10.2052 12.7961 9.95549 12.7518C9.64807 12.7065 9.35088 12.7723 9.14295 12.9309C8.96675 13.0662 8.8583 13.2634 8.82908 13.5024C8.8244 13.5417 8.82212 13.5813 8.82227 13.6208C8.82227 13.7321 8.84217 13.831 8.88142 13.9169L8.9248 13.9198C9.24028 13.9439 9.67156 13.9635 10.1686 13.9674Z" fill="white"/>
<path d="M13.4236 13.3316H14.3996C14.4156 13.2208 14.4587 12.9279 14.4787 12.7871H12.8517C12.8417 12.8524 12.7786 13.2821 12.708 13.7708C12.9308 13.7436 13.1529 13.7107 13.374 13.6723L13.4236 13.3316Z" fill="white"/>
<path d="M9.5441 9.38428C9.52173 9.53621 9.2136 11.687 9.18506 11.8875L9.87424 11.8876C9.89551 11.7354 10.2041 9.58441 10.2335 9.3843L9.5441 9.38428Z" fill="white"/>
<path d="M15.187 9.38477L14.8281 11.888H16.4448C16.4599 11.7781 16.5013 11.4878 16.5216 11.3476H15.5424L15.6087 10.8847H16.4972C16.5127 10.7775 16.5505 10.5172 16.5699 10.3804H15.6808L15.7467 9.92407H16.6998C16.716 9.81432 16.7573 9.52427 16.7776 9.38477H15.187Z" fill="white"/>
<path d="M7.50755 10.8188C7.50755 10.8188 8.08373 9.49968 8.12952 9.38477H8.99719C8.99755 9.56008 8.88156 11.7104 8.88316 11.888H8.25869L8.36167 10.1348C8.36167 10.1348 7.65934 11.7759 7.61249 11.888H7.11897L6.89715 10.1348C6.88129 10.2145 6.647 11.3852 6.51926 11.888H5.89746C5.96231 11.6648 6.43802 9.51305 6.47507 9.38477H7.31121L7.50755 10.8188Z" fill="white"/>
<path d="M13.3852 10.8644L13.7802 9.93548L13.909 10.8644H13.3852ZM13.9749 11.3813C13.9749 11.3813 14.02 11.7889 14.0349 11.888H14.6963C14.6594 11.6817 14.2988 9.53122 14.2721 9.38477H13.4354C13.3873 9.48917 12.432 11.6416 12.3188 11.888H12.99C13.0258 11.8035 13.1961 11.3815 13.1961 11.3815L13.9749 11.3813Z" fill="white"/>
<path d="M11.1948 9.85441H11.3486C11.454 9.85441 11.5715 9.86546 11.6443 9.94991C11.6956 10.0096 11.7143 10.0937 11.699 10.2004C11.699 10.2004 11.6776 10.3921 11.5522 10.4523C11.5522 10.4523 11.4653 10.5088 11.3217 10.5126H11.0101L11.5987 11.8878H12.2675L11.7617 10.8327C12.0682 10.7764 12.3075 10.6852 12.3679 10.21C12.3761 10.1502 12.381 10.0933 12.381 10.0401C12.381 9.86403 12.3351 9.72186 12.2435 9.61638C12.0771 9.42467 11.7918 9.38477 11.5814 9.38477H10.6359C10.614 9.53674 10.3061 11.6874 10.2764 11.8878H10.9048C10.9252 11.748 11.1948 9.85441 11.1948 9.85441Z" fill="white"/>
</svg>
