<svg width="24" height="24" viewBox="0 0 24 24" fill="none" xmlns="http://www.w3.org/2000/svg">
<g clip-path="url(#clip0_55072_5164)">
<path d="M9.12652 6.78027C8.30557 6.93454 7.09074 7.67835 7.09548 8.99829C7.09769 10.1932 8.07575 10.9174 8.0786 12.485C8.08271 13.6648 7.43435 14.4589 6.73242 14.899C7.0435 14.8705 7.35574 14.8564 7.66812 14.8567C8.38618 14.8545 8.8172 14.9224 8.84407 14.9281L12.5205 10.4093C11.4983 8.8788 10.3059 7.69147 9.12652 6.78027Z" fill="#E31838"/>
<path d="M12.2141 18.9786C12.6759 18.2594 12.736 17.1086 12.7744 15.9372C12.8177 14.8458 13.0453 14.0232 14.5042 14.0176C14.8273 14.0159 15.1364 14.0616 15.6944 14.0598C17.8319 14.0507 19.2262 13.3127 20.0952 12.8297C18.3213 11.6977 15.731 10.5401 12.5199 10.4092C12.3113 11.0032 10.6833 15.5342 10.5591 15.8995C10.5792 15.9217 10.8638 16.242 11.2199 16.8661C11.7453 17.7231 12.026 18.4491 12.2141 18.9784" fill="#E31838"/>
<path d="M4.44798 15.2767C4.264 15.2767 4.17138 15.1539 4.14672 14.9407C4.12333 14.7262 3.20296 6.306 3.06561 5.02953C3.04633 4.84271 3.00001 4.50146 3.00001 4.37912C2.99843 4.18234 3.12693 4.08008 3.27835 4.08008C3.71349 4.07897 6.08593 4.63644 8.60583 6.40384C7.88035 6.60805 6.5661 7.36483 6.57164 8.93118C6.57796 10.3147 7.56756 11.0779 7.5734 12.4699C7.5802 14.729 4.98758 15.2756 4.44798 15.2767ZM12.4245 19.5778C12.464 19.6846 12.5012 19.7744 12.5394 19.8349C12.5966 19.935 12.6715 19.9795 12.7664 19.9795C12.8242 19.9795 12.8957 19.9574 12.975 19.9212C13.1694 19.8321 20.8452 16.2546 22.0028 15.7194C22.1727 15.6394 22.4888 15.4972 22.5963 15.4354C22.7031 15.3738 22.7523 15.2816 22.7523 15.1896C22.7513 15.1364 22.7366 15.0844 22.7094 15.0387C22.5653 14.8047 21.8205 14.016 20.5782 13.1538C19.5927 13.6958 18.0532 14.5378 15.7625 14.5463C15.2 14.5476 15.0748 14.5076 14.6918 14.5115C13.5736 14.515 13.2952 14.9924 13.2529 15.9745C13.2461 16.1596 13.2454 16.4089 13.2323 16.6833C13.1976 17.5621 13.0945 18.7704 12.4247 19.5776" fill="#F47725"/>
</g>
<defs>
<clipPath id="clip0_55072_5164">
<rect width="24" height="24" fill="white"/>
</clipPath>
</defs>
</svg>
