<svg width="24" height="24" viewBox="0 0 24 24" fill="none" xmlns="http://www.w3.org/2000/svg">
<g clip-path="url(#clip0_55072_4926)">
<g clip-path="url(#clip1_55072_4926)">
<path d="M4.16992 14.2369C4.16992 14.5435 4.41882 14.7937 4.72536 14.7937H8.6141V4.51675L4.16992 9.19672V14.2369ZM14.2674 19.8582C14.5733 19.8582 14.8215 19.6093 14.8215 19.3021V15.4133H4.54524L9.22587 19.8575L14.2674 19.8582ZM19.8899 9.76461C19.8901 9.69174 19.8759 9.61955 19.848 9.5522C19.8202 9.48485 19.7793 9.42366 19.7278 9.37216C19.6762 9.32066 19.615 9.27987 19.5476 9.25212C19.4802 9.22437 19.408 9.21022 19.3351 9.21048H15.4457V19.4868L19.888 14.8048L19.8899 9.76461ZM9.7931 4.14209C9.64596 4.14209 9.50485 4.20054 9.4008 4.30458C9.29676 4.40862 9.23831 4.54974 9.23831 4.69687V8.58757H19.514L14.8346 4.14209H9.7931Z" fill="#117ACB"/>
</g>
</g>
<defs>
<clipPath id="clip0_55072_4926">
<rect width="24" height="24" fill="white"/>
</clipPath>
<clipPath id="clip1_55072_4926">
<rect width="15.72" height="15.72" fill="white" transform="translate(4.16992 4.14014)"/>
</clipPath>
</defs>
</svg>
