<svg width="40" height="40" viewBox="0 0 40 40" fill="none" xmlns="http://www.w3.org/2000/svg">
<g clip-path="url(#clip0_55068_190674)">
<path fill-rule="evenodd" clip-rule="evenodd" d="M20 40C8.954 40 0 31.046 0 20C0 8.954 8.954 0 20 0C31.046 0 40 8.954 40 20C40 31.046 31.046 40 20 40Z" fill="#D6E6FD"/>
<mask id="mask0_55068_190674" style="mask-type:luminance" maskUnits="userSpaceOnUse" x="8" y="8" width="19" height="13">
<path d="M8.25977 8H26.4218V20.79H8.25977V8Z" fill="white"/>
</mask>
<g mask="url(#mask0_55068_190674)">
<path fill-rule="evenodd" clip-rule="evenodd" d="M9.32577 20.7898C9.04339 20.7898 8.77255 20.6777 8.5727 20.4782C8.37284 20.2788 8.2603 20.0081 8.25977 19.7258C8.25977 17.6688 8.80477 15.6368 9.83577 13.8498C10.8712 12.068 12.352 10.5859 14.1328 9.54876C17.7218 7.48276 22.3078 7.48376 25.8878 9.54776C26.009 9.61762 26.1152 9.71068 26.2005 9.82161C26.2857 9.93254 26.3483 10.0592 26.3846 10.1943C26.4209 10.3294 26.4303 10.4703 26.4121 10.609C26.3939 10.7478 26.3486 10.8816 26.2788 11.0028C26.2089 11.124 26.1158 11.2302 26.0049 11.3155C25.894 11.4007 25.7674 11.4633 25.6322 11.4996C25.4971 11.5359 25.3562 11.5453 25.2175 11.5271C25.0788 11.5089 24.945 11.4636 24.8238 11.3938C21.8898 9.70376 18.1358 9.70376 15.2008 11.3948C13.742 12.2442 12.5288 13.4578 11.6798 14.9168C10.8375 16.3793 10.3935 18.0371 10.3918 19.7248C10.3918 20.3118 9.91477 20.7908 9.32577 20.7908" fill="#007FF4"/>
</g>
<mask id="mask1_55068_190674" style="mask-type:luminance" maskUnits="userSpaceOnUse" x="6" y="18" width="5" height="6">
<path d="M6.47217 18.5752H10.3852V23.1802H6.47217V18.5752Z" fill="white"/>
</mask>
<g mask="url(#mask1_55068_190674)">
<path fill-rule="evenodd" clip-rule="evenodd" d="M10.3333 18.5752H7.15026C6.60026 18.5752 6.28026 19.1952 6.59826 19.6432L8.85226 22.8192C9.32226 23.4942 10.3843 23.1592 10.3843 22.3382V18.6272C10.3843 18.6136 10.3789 18.6005 10.3694 18.5908C10.3599 18.5811 10.3469 18.5755 10.3333 18.5752Z" fill="#007FF4"/>
</g>
<path fill-rule="evenodd" clip-rule="evenodd" d="M19.987 32.0002C17.9243 31.9979 15.8985 31.4541 14.112 30.4232C13.8672 30.2821 13.6884 30.0495 13.6151 29.7767C13.5418 29.5038 13.5799 29.213 13.721 28.9682C13.8621 28.7234 14.0946 28.5447 14.3675 28.4713C14.6403 28.398 14.9312 28.4361 15.176 28.5772C18.109 30.2672 21.865 30.2672 24.799 28.5762C26.2572 27.7269 27.4701 26.5137 28.319 25.0552C29.1616 23.5924 29.606 21.9343 29.608 20.2462C29.608 19.9635 29.7203 19.6923 29.9202 19.4924C30.1201 19.2925 30.3912 19.1802 30.674 19.1802C30.9567 19.1802 31.2278 19.2925 31.4277 19.4924C31.6276 19.6923 31.74 19.9635 31.74 20.2462C31.7382 22.309 31.1947 24.3353 30.164 26.1222C29.1283 27.9036 27.6476 29.3853 25.867 30.4222C24.0788 31.4535 22.0513 31.9976 19.987 32.0002Z" fill="#007FF4"/>
<path fill-rule="evenodd" clip-rule="evenodd" d="M29.6662 21.3959H32.8492C33.3992 21.3959 33.7192 20.7759 33.4022 20.3279L31.1462 17.1519C30.6762 16.4779 29.6162 16.8119 29.6162 17.6349V21.3449C29.6162 21.3729 29.6382 21.3959 29.6662 21.3959Z" fill="#007FF4"/>
<path fill-rule="evenodd" clip-rule="evenodd" d="M28.3682 19.9848C28.3682 21.0819 28.1522 22.1682 27.7324 23.1818C27.3127 24.1954 26.6974 25.1164 25.9217 25.8922C25.146 26.6679 24.2251 27.2833 23.2116 27.7032C22.198 28.1231 21.1117 28.3393 20.0147 28.3393C17.799 28.3395 15.6741 27.4594 14.1073 25.8929C12.5406 24.3263 11.6603 22.2015 11.6602 19.9858C11.6602 17.7702 12.5403 15.6453 14.107 14.0787C15.6737 12.512 17.7985 11.6318 20.0142 11.6318C22.2298 11.6318 24.3546 12.512 25.9213 14.0787C27.488 15.6453 28.3682 17.7692 28.3682 19.9848Z" fill="#4E9BF9"/>
<path d="M17.5688 22.0558C17.5688 22.0558 19.0138 23.9028 21.2738 22.9998C22.7848 22.3978 22.9518 20.3378 20.0178 19.9848C17.0828 19.6328 17.2498 17.5728 18.7618 16.9708C20.4558 16.2948 21.6938 17.1628 22.2058 17.6408M20.0178 15.5518V16.7228M20.0178 24.4188V23.2478" stroke="white" stroke-width="1.2" stroke-linecap="round"/>
</g>
<defs>
<clipPath id="clip0_55068_190674">
<rect width="40" height="40" fill="white"/>
</clipPath>
</defs>
</svg>
