<svg width="24" height="24" viewBox="0 0 24 24" fill="none" xmlns="http://www.w3.org/2000/svg">
<path d="M20 4H4V20H20V4Z" fill="#EF3B24"/>
<path d="M10.6232 11.3719C11.3417 11.3719 11.7853 11.8156 11.7853 12.5617C11.7853 12.6595 11.7756 12.767 11.7712 12.7811H10.1567C10.1708 13.0424 10.4086 13.2292 10.684 13.2292C10.9045 13.2292 11.0424 13.139 11.1184 12.9984L11.6985 13.2183C11.5502 13.5621 11.2004 13.8309 10.6748 13.8309C10.0356 13.8309 9.46641 13.3736 9.46641 12.5943C9.46641 11.8481 10.0214 11.3719 10.6232 11.3719ZM15.6939 10.7859V11.455H16.1414V12.0686H15.6939V12.9267C15.6939 13.1157 15.7954 13.1667 15.948 13.1667C16.0213 13.1667 16.0909 13.1526 16.1327 13.1439V13.725C16.1044 13.7386 15.9893 13.7896 15.7677 13.7896C15.2925 13.7896 15.002 13.5078 15.002 13.0511V12.0686H14.5958V11.455H14.7114C14.9509 11.455 15.0666 11.2937 15.0666 11.0813V10.7859H15.6939ZM8.38894 11.386C8.82232 11.386 9.23777 11.6396 9.23777 12.2625V13.7478H8.55893V12.4195C8.55893 12.2022 8.44434 12.0317 8.19506 12.0317C7.94579 12.0317 7.8122 12.2207 7.8122 12.4238V13.7478H7.11977V12.4195C7.11977 12.2022 7.00464 12.0317 6.75048 12.0317C6.5061 12.0317 6.3725 12.2207 6.3725 12.4281V13.7478H5.67139V11.455H6.34046V11.7178C6.45559 11.5147 6.75102 11.386 7.0003 11.386C7.32777 11.386 7.56292 11.5196 7.67806 11.7455C7.85836 11.4875 8.07993 11.386 8.38894 11.386ZM13.2994 11.4321C13.3684 11.4321 13.4379 11.4414 13.4841 11.455V12.1468C13.4114 12.1306 13.337 12.1229 13.2625 12.124C12.9812 12.124 12.7276 12.2902 12.7276 12.7469V13.7478H12.0259V11.455H12.7048V11.7645C12.8242 11.506 13.1148 11.4321 13.2994 11.4321ZM14.4252 11.455V13.7478H13.7241V11.455H14.4252ZM18.3099 11.455V12.0317L17.2623 13.1341H18.3283V13.7478H16.4048V13.1298L17.4018 12.0686H16.4325V11.455H18.3099ZM10.6324 11.9318C10.3337 11.9318 10.1849 12.1512 10.1708 12.3239H11.0994C11.0897 12.1468 10.9691 11.9318 10.6324 11.9318ZM14.0695 10.1689C14.3237 10.1689 14.5268 10.3721 14.5268 10.6213C14.5268 10.8705 14.3252 11.0728 14.076 11.0737C13.8268 11.0746 13.6238 10.8737 13.622 10.6246C13.6203 10.3754 13.8203 10.1716 14.0695 10.1689Z" fill="white"/>
</svg>
