<svg width="24" height="24" viewBox="0 0 24 24" fill="none" xmlns="http://www.w3.org/2000/svg">
<path d="M20 4H4V20H20V4Z" fill="#0599D9"/>
<path fill-rule="evenodd" clip-rule="evenodd" d="M10.0053 12.3861L9.60526 12.7862L9.24262 13.1489L8.98802 13.4035L8.7591 13.6324C8.71156 13.68 8.65511 13.7177 8.59298 13.7435C8.53085 13.7692 8.46425 13.7825 8.39699 13.7825C8.32973 13.7825 8.26314 13.7692 8.201 13.7435C8.13887 13.7177 8.08242 13.68 8.03489 13.6324L8.32692 13.3403L8.62431 13.0435L8.87891 12.7889L9.23887 12.4284L9.64323 12.0246C9.69196 11.9806 9.75573 11.957 9.82136 11.9586C9.88699 11.9603 9.94948 11.9871 9.99594 12.0334C10.0424 12.0798 10.0693 12.1423 10.071 12.2079C10.0728 12.2735 10.0493 12.3373 10.0053 12.3861ZM10.6509 12.9467L10.6536 12.9494L9.97111 13.6324C9.92357 13.68 9.86712 13.7177 9.80499 13.7435C9.74286 13.7692 9.67626 13.7825 9.609 13.7825C9.54174 13.7825 9.47515 13.7692 9.41301 13.7435C9.35088 13.7177 9.29443 13.68 9.2469 13.6324L9.30734 13.5714L9.59135 13.2879L10.2038 12.675L10.2728 12.6065C10.3266 12.5447 10.3674 12.4726 10.3927 12.3947C10.418 12.3167 10.4274 12.2344 10.4202 12.1528C10.413 12.0711 10.3894 11.9917 10.3508 11.9194C10.3123 11.8471 10.2595 11.7833 10.1957 11.7318C10.1319 11.6803 10.0584 11.6422 9.97959 11.6198C9.90074 11.5973 9.81819 11.5911 9.73685 11.6013C9.65552 11.6115 9.57708 11.638 9.50622 11.6792C9.43536 11.7204 9.37354 11.7755 9.32445 11.8411L9.32606 11.8427L9.31322 11.8561L8.73396 12.4353L8.45048 12.7188L8.1103 13.0585L7.53692 13.6324C7.48939 13.68 7.43294 13.7177 7.37081 13.7435C7.30868 13.7692 7.24208 13.7825 7.17482 13.7825C7.10756 13.7825 7.04096 13.7692 6.97883 13.7435C6.9167 13.7177 6.86025 13.68 6.81271 13.6324L7.89101 12.5541L8.35848 12.0861L8.96449 11.4806L8.96502 11.4817C9.05986 11.3664 9.17684 11.2712 9.30906 11.2019C9.44128 11.1326 9.58605 11.0904 9.73483 11.078C9.88361 11.0656 10.0334 11.0831 10.1753 11.1295C10.3172 11.1759 10.4483 11.2502 10.561 11.3482C10.6737 11.4461 10.7656 11.5657 10.8313 11.6997C10.897 11.8338 10.9352 11.9797 10.9435 12.1287C10.9519 12.2778 10.9303 12.427 10.8801 12.5676C10.8298 12.7082 10.7519 12.8373 10.6509 12.9472V12.9467ZM9.80583 10.2183C10.897 10.2183 11.7806 11.0591 11.7806 12.0968C11.7806 12.0968 11.7961 12.4043 11.695 12.7739C11.6308 13.0135 11.5163 13.2788 11.3179 13.5035C11.2777 13.5493 11.2346 13.5925 11.189 13.6329C11.1415 13.6805 11.085 13.7182 11.0229 13.744C10.9607 13.7697 10.8942 13.783 10.8269 13.783C10.7596 13.783 10.693 13.7697 10.6309 13.744C10.5688 13.7182 10.5123 13.6805 10.4648 13.6329L10.8146 13.2826L10.9125 13.1852C11.1645 12.9091 11.3015 12.5471 11.2954 12.1733C11.2885 11.7882 11.1312 11.4211 10.8573 11.1504C10.5834 10.8797 10.2145 10.7268 9.82937 10.7243C9.62692 10.7235 9.4265 10.7645 9.24073 10.845C9.05496 10.9255 8.88787 11.0435 8.75 11.1918L7.83164 12.1069L6.30673 13.6324C6.25919 13.68 6.20274 13.7177 6.14061 13.7435C6.07848 13.7692 6.01188 13.7825 5.94462 13.7825C5.87737 13.7825 5.81077 13.7692 5.74864 13.7435C5.6865 13.7177 5.63006 13.68 5.58252 13.6324H5.58412L8.16432 11.0522L8.60987 10.6072C8.62202 10.5948 8.63526 10.5835 8.64945 10.5735C8.99006 10.3403 9.39357 10.2162 9.80637 10.2178L9.80583 10.2183ZM15.3765 13.044L15.6733 13.3409L15.9654 13.6329C15.9178 13.6805 15.8614 13.7182 15.7992 13.744C15.7371 13.7697 15.6705 13.783 15.6033 13.783C15.536 13.783 15.4694 13.7697 15.4073 13.744C15.3451 13.7182 15.2887 13.6805 15.2412 13.6329L15.0128 13.404L14.7576 13.1494L14.395 12.7868L13.9954 12.3867C13.9515 12.3379 13.928 12.2741 13.9298 12.2085C13.9315 12.1428 13.9584 12.0804 14.0048 12.034C14.0513 11.9876 14.1138 11.9608 14.1794 11.9592C14.2451 11.9575 14.3088 11.9811 14.3576 12.0251L14.7614 12.4289L15.1219 12.7894L15.3765 13.044ZM15.6418 12.0866L16.1098 12.5546L17.1875 13.6329C17.0916 13.7288 16.9614 13.7827 16.8257 13.7827C16.69 13.7827 16.5598 13.7288 16.4639 13.6329L15.8894 13.0585L15.5492 12.7183L15.2658 12.4348L14.6865 11.8561L14.6737 11.8427L14.6758 11.8406C14.6267 11.7749 14.5649 11.7199 14.494 11.6786C14.4232 11.6374 14.3447 11.6109 14.2634 11.6007C14.1821 11.5905 14.0995 11.5968 14.0207 11.6192C13.9418 11.6417 13.8683 11.6798 13.8045 11.7312C13.7407 11.7827 13.688 11.8465 13.6494 11.9189C13.6109 11.9912 13.5873 12.0706 13.5801 12.1522C13.5729 12.2339 13.5822 12.3162 13.6076 12.3941C13.6329 12.4721 13.6737 12.5441 13.7275 12.606L13.7959 12.6755L14.4084 13.2874L14.6924 13.5714L14.7534 13.6324C14.7058 13.68 14.6494 13.7177 14.5872 13.7435C14.5251 13.7692 14.4585 13.7825 14.3912 13.7825C14.324 13.7825 14.2574 13.7692 14.1953 13.7435C14.1331 13.7177 14.0767 13.68 14.0291 13.6324L13.3461 12.9494L13.3488 12.9467C13.2478 12.8367 13.1699 12.7076 13.1196 12.5671C13.0694 12.4265 13.0478 12.2772 13.0562 12.1282C13.0646 11.9791 13.1027 11.8333 13.1684 11.6992C13.2341 11.5651 13.326 11.4456 13.4387 11.3477C13.5514 11.2497 13.6825 11.1753 13.8244 11.1289C13.9663 11.0825 14.1161 11.065 14.2649 11.0775C14.4137 11.0899 14.5584 11.132 14.6907 11.2014C14.8229 11.2707 14.9399 11.3658 15.0347 11.4811H15.0358L15.6412 12.0861L15.6418 12.0866ZM18.4161 13.6324H18.4177C18.3217 13.7283 18.1916 13.7822 18.0559 13.7822C17.9202 13.7822 17.79 13.7283 17.6941 13.6324L16.1686 12.108L15.2508 11.1923C15.1129 11.044 14.9457 10.9259 14.7598 10.8454C14.5739 10.765 14.3734 10.7239 14.1709 10.7248C13.7859 10.7274 13.4173 10.8803 13.1435 11.1509C12.8697 11.4215 12.7125 11.7884 12.7053 12.1733C12.6992 12.5471 12.8362 12.9091 13.0883 13.1852L13.1857 13.2826L13.5355 13.6329C13.4879 13.6805 13.4315 13.7182 13.3693 13.744C13.3072 13.7697 13.2406 13.783 13.1734 13.783C13.1061 13.783 13.0395 13.7697 12.9774 13.744C12.9152 13.7182 12.8588 13.6805 12.8113 13.6329C12.7656 13.5925 12.7226 13.5493 12.6823 13.5035C12.4844 13.2788 12.37 13.0135 12.3047 12.7739C12.2047 12.4049 12.2197 12.0968 12.2197 12.0968C12.2197 11.0591 13.1038 10.2183 14.1944 10.2183C14.6261 10.2183 15.0256 10.3504 15.3508 10.574C15.3652 10.5842 15.3786 10.5954 15.3909 10.6077L15.8359 11.0527L18.4161 13.6324Z" fill="white"/>
</svg>
