<svg width="24" height="24" viewBox="0 0 24 24" fill="none" xmlns="http://www.w3.org/2000/svg">
<path fill-rule="evenodd" clip-rule="evenodd" d="M4 20.0007H20.0004V4.00195H4V20.0007Z" fill="#000090"/>
<path fill-rule="evenodd" clip-rule="evenodd" d="M18.3396 5.57496L12.8921 12.6267H13.7117L19.142 5.57422L18.3396 5.57496Z" fill="#FD1923"/>
<path fill-rule="evenodd" clip-rule="evenodd" d="M10.8505 17.4543L11.2432 16.9154C11.2061 16.876 10.9856 16.2057 10.9856 16.2057L10.6055 16.6979L10.8505 17.4543ZM8.70286 14.1308C8.54994 14.4597 7.65019 15.5561 7.65019 15.5561H9.07553C9.07553 15.5561 8.79937 14.7046 8.75112 14.5124C8.71326 14.3602 8.72291 14.1635 8.72291 14.1397C8.72291 14.1226 8.71994 14.0937 8.70286 14.1308ZM14.1822 14.1308C14.0293 14.4597 13.1288 15.5561 13.1288 15.5561H14.5549C14.5549 15.5561 14.2788 14.7046 14.2305 14.5124C14.1919 14.3602 14.2023 14.1635 14.2023 14.1397C14.2023 14.1226 14.1993 14.0937 14.1822 14.1308ZM15.7679 15.7729C16.0166 16.4692 16.5296 18.2821 16.733 18.4261H15.3871C15.3871 18.4261 15.3826 18.1588 15.324 17.951C15.2661 17.7431 14.7791 16.1767 14.7791 16.1767H12.6411L12.3041 16.6533C12.3041 16.6533 12.7079 17.9176 12.7332 17.9799C12.777 18.0913 12.9692 18.4254 12.9692 18.4254H11.679C11.679 18.4254 11.6456 18.2323 11.633 18.1522C11.6233 18.0876 11.5112 17.732 11.5112 17.732C11.5112 17.732 11.218 18.0519 11.1386 18.2004C11.0584 18.3489 11.0227 18.4261 11.0227 18.4261H10.0131C10.0131 18.4261 9.97973 18.2331 9.96711 18.1522C9.95672 18.0876 9.83348 17.703 9.83348 17.703C9.83348 17.703 9.55138 18.046 9.47047 18.1945C9.42904 18.27 9.3909 18.3473 9.35614 18.4261H8.35766C8.35766 18.4261 8.63976 18.1574 8.7385 18.0416C9.00473 17.7098 9.26681 17.3747 9.52466 17.0364L9.27597 16.1767H7.15355C7.15355 16.1767 5.9435 17.7669 5.89599 17.8159C5.84773 17.8649 5.49511 18.3704 5.48769 18.4261H4.85742V18.0252C4.87004 18.0133 4.87821 18.0044 4.88266 18.0015C4.90196 17.9866 5.80022 16.8723 6.62499 15.7729C7.36587 14.8152 8.06146 13.8828 8.12308 13.7938C8.27007 13.5785 8.48312 13.1152 8.48312 13.1152H9.58108C9.58108 13.1152 9.61523 13.5421 9.64789 13.6453C9.6761 13.7366 10.3442 15.9303 10.3606 15.954L10.7295 15.4811L10.0985 13.5362C10.0985 13.5362 9.95003 13.1702 9.90178 13.1152H11.1831C11.1831 13.1152 11.1734 13.3038 11.2247 13.4641C11.2766 13.6245 11.5521 14.6156 11.5521 14.6156C11.5521 14.6156 12.4258 13.5198 12.477 13.4411C12.5735 13.309 12.5854 13.1152 12.5854 13.1152H13.6529C13.6529 13.1152 13.4577 13.2585 13.1147 13.6921L11.872 15.2703C11.872 15.2703 11.9707 15.6066 12.0183 15.7729C12.0316 15.8211 12.0405 15.8538 12.0405 15.8568C12.0405 15.8583 12.0658 15.8278 12.1081 15.7729C12.3991 15.4047 13.7227 13.669 13.8029 13.5206C13.8675 13.4003 13.9632 13.2637 14.0182 13.1152H15.0605C15.0605 13.1152 15.0842 13.427 15.1161 13.5124L15.7679 15.7729Z" fill="#FEFEFE"/>
</svg>
