<svg width="24" height="24" viewBox="0 0 24 24" fill="none" xmlns="http://www.w3.org/2000/svg">
<path d="M19.9993 4.00098H4.00098V19.9993H19.9993V4.00098Z" fill="#231F20"/>
<path d="M18.1768 6.29639H12.4805L17.0675 17.7046H18.1768V6.29639Z" fill="#FCAF17"/>
<path d="M9.64439 12.739H8.94522V15.9153L7.06429 12.9712C6.92264 12.7554 6.75135 12.7373 6.57512 12.7373H5.82324V17.7031H6.90864V14.3959C7.4464 15.2466 8.99792 17.7031 8.99792 17.7031H10.0306V13.1235C10.0306 12.8757 9.89391 12.7381 9.64521 12.7381L9.64439 12.739Z" fill="white"/>
<path d="M14.0851 13.3039C13.9393 12.9432 13.661 12.7373 13.3201 12.7373H13.1685C12.8284 12.7373 12.5501 12.9432 12.4051 13.3031L10.6807 17.704H11.8196L12.2552 16.5354H14.2333L14.669 17.704H15.8079L14.0851 13.3039ZM13.922 15.6938H12.5665L13.2443 13.7922L13.922 15.6938Z" fill="white"/>
<path d="M11.1556 6.29672H10.4556V11.2609H11.541V6.68131C11.541 6.43343 11.4043 6.29672 11.1556 6.29672Z" fill="white"/>
<path d="M6.90782 10.4201V6.68131C6.90782 6.43343 6.77112 6.2959 6.52324 6.2959H5.82324V10.598C5.82324 10.9628 6.12053 11.2609 6.48618 11.2609H9.53486V10.4201H6.90782Z" fill="white"/>
</svg>
