<svg width="24" height="24" viewBox="0 0 24 24" fill="none" xmlns="http://www.w3.org/2000/svg">
<g clip-path="url(#clip0_55072_5515)">
<path d="M15.9871 11.6465C14.638 10.7298 12.9109 11.1038 12.0049 12.4823C11.2472 13.6334 10.1048 13.7767 9.66143 13.7767C8.21949 13.7767 7.23168 12.7621 6.93889 11.7119H6.93804C6.93635 11.7015 6.93325 11.6927 6.93099 11.6826C6.92761 11.6713 6.92422 11.6595 6.92168 11.647C6.80603 11.2093 6.77839 10.9997 6.77839 10.5343C6.77839 8.02301 9.3551 5.22769 13.0655 5.22769C16.8649 5.22769 19.0391 8.12004 19.5979 9.72756C19.5889 9.69935 19.5801 9.67142 19.57 9.64237C18.4925 6.49813 15.5104 4.23706 12.0004 4.23706C7.58201 4.23706 4 7.81879 4 12.238C4 16.1875 6.84863 19.5684 10.8001 19.5684C13.9512 19.5684 16.0695 17.8012 17.0415 15.3661C17.5752 14.0342 17.1961 12.469 15.9871 11.6465Z" fill="#053863"/>
<path d="M19.6483 9.88363C19.1812 8.31504 16.9912 5.22778 13.0654 5.22778C9.35531 5.22778 6.77832 8.0231 6.77832 10.5344C6.77832 10.9998 6.80625 11.2094 6.92189 11.6471C6.87281 11.4556 6.84827 11.2638 6.84827 11.0765C6.84827 8.46144 9.46617 6.64913 12.158 6.64913C15.8012 6.64913 18.7545 9.60325 18.7545 13.2456C18.7545 16.1021 17.1117 18.5736 14.7228 19.7614L14.7237 19.7631C17.8019 18.6487 20.0001 15.7002 20.0001 12.2381C20.0001 11.4184 19.8898 10.6963 19.6483 9.88363Z" fill="#E4022E"/>
</g>
<defs>
<clipPath id="clip0_55072_5515">
<rect width="24" height="24" fill="white"/>
</clipPath>
</defs>
</svg>
