<svg width="24" height="24" viewBox="0 0 24 24" fill="none" xmlns="http://www.w3.org/2000/svg">
<g clip-path="url(#clip0_55072_5538)">
<path fill-rule="evenodd" clip-rule="evenodd" d="M7.81665 4.15219C7.59583 4.25975 7.39854 4.41003 7.2362 4.59435C7.07386 4.77867 6.9497 4.99337 6.8709 5.226L3.80749 14.1918C3.72676 14.4243 3.69323 14.6706 3.70887 14.9162C3.7245 15.1618 3.78899 15.4019 3.89855 15.6222C4.11681 16.0665 4.50254 16.4059 4.97096 16.5658L14.7532 19.9381C14.9857 20.0184 15.2318 20.0518 15.4773 20.0364C15.7229 20.021 15.9629 19.9571 16.1836 19.8484C16.4046 19.7409 16.6021 19.5904 16.7645 19.4058C16.9268 19.2212 17.0509 19.0062 17.1293 18.7732L20.1941 9.8102C20.3545 9.34044 20.3219 8.8262 20.1033 8.38051C19.8848 7.93482 19.4982 7.59414 19.0286 7.43335L9.24704 4.06184C9.01449 3.98138 8.76826 3.948 8.52269 3.96363C8.27711 3.97927 8.03711 4.0429 7.81665 4.15219Z" fill="#FEFEFE"/>
<path fill-rule="evenodd" clip-rule="evenodd" d="M7.9195 14.5881L8.59536 14.5935L8.6331 9.92268L7.95724 9.91721L7.9195 14.5881ZM12.5462 12.8257C12.0025 13.4271 11.3243 13.8913 10.567 14.1806L10.1233 14.349L10.1569 10.1834L10.5929 10.3568C11.3468 10.6561 12.0191 11.1297 12.555 11.7386C12.9526 11.1082 13.1871 10.3886 13.2372 9.64493C13.375 7.64947 12.1393 5.80711 10.4254 5.15557L9.01312 4.6728C8.86196 4.62156 8.70217 4.60072 8.54293 4.61146C8.38369 4.6222 8.22814 4.66431 8.08523 4.73537C7.94232 4.80644 7.81487 4.90505 7.71021 5.02555C7.60554 5.14604 7.52573 5.28604 7.47536 5.43749L4.40271 14.4082C4.18522 15.047 4.53771 15.7441 5.17719 15.9602L11.9663 18.2877C12.6922 17.5286 13.1285 16.5386 13.1991 15.4907C13.266 14.5559 13.0376 13.6237 12.5462 12.8257Z" fill="#0086EC"/>
<path fill-rule="evenodd" clip-rule="evenodd" d="M12.1579 12.279C11.7802 11.8261 11.3181 11.4507 10.7974 11.1738L10.7796 13.3677C11.3057 13.0982 11.7739 12.7284 12.1579 12.279Z" fill="#ED5700"/>
<path fill-rule="evenodd" clip-rule="evenodd" d="M17.0993 14.6465L16.2557 14.6426L14.5378 12.2931L16.3203 9.97261L17.1717 9.97595L15.3857 12.3035L17.0993 14.6465ZM18.8089 8.03153L12.5781 5.89331C13.4397 6.84908 13.9131 8.09232 13.9053 9.37911C13.8946 10.4187 13.5721 11.4312 12.9794 12.2854C13.5599 13.1472 13.8688 14.1632 13.866 15.2022C13.8578 16.4187 13.4202 17.5933 12.6304 18.5186L14.9708 19.3203C15.1222 19.3716 15.2822 19.3925 15.4416 19.3816C15.601 19.3708 15.7567 19.3285 15.8997 19.2573C16.0427 19.186 16.1702 19.0871 16.2749 18.9663C16.3795 18.8455 16.4592 18.7052 16.5093 18.5535L19.5827 9.58281C19.8009 8.94547 19.4469 8.24901 18.8089 8.03153Z" fill="#004497"/>
</g>
<defs>
<clipPath id="clip0_55072_5538">
<rect width="24" height="24" fill="white"/>
</clipPath>
</defs>
</svg>
