<svg width="24" height="24" viewBox="0 0 24 24" fill="none" xmlns="http://www.w3.org/2000/svg">
<path d="M20 4H4V20H20V4Z" fill="#0B4199"/>
<mask id="mask0_55072_5512" style="mask-type:luminance" maskUnits="userSpaceOnUse" x="5" y="10" width="3" height="4">
<path d="M5.5791 10.9509H7.47847V13.0108H5.5791V10.9509Z" fill="white"/>
</mask>
<g mask="url(#mask0_55072_5512)">
<path fill-rule="evenodd" clip-rule="evenodd" d="M6.68555 11.4442H7.47847V10.9509H6.52878C6.00445 10.9509 5.5791 11.3763 5.5791 11.9006V12.0606C5.5791 12.5855 6.00445 13.0108 6.52878 13.0108H7.47847V12.5715H6.68555C6.5489 12.5715 6.41785 12.5173 6.32122 12.4206C6.2246 12.324 6.17031 12.193 6.17031 12.0563V11.9595C6.17031 11.6748 6.40038 11.4442 6.68555 11.4442Z" fill="#FFFFFB"/>
</g>
<path fill-rule="evenodd" clip-rule="evenodd" d="M12.7734 11.4442H13.5669V10.9509H12.6167C12.0923 10.9509 11.667 11.3763 11.667 11.9006V12.0606C11.667 12.5849 12.0923 13.0108 12.6167 13.0108H13.5669V12.5715H12.7734C12.6368 12.5715 12.5057 12.5173 12.4091 12.4206C12.3125 12.324 12.2582 12.193 12.2582 12.0563V11.9595C12.2582 11.6748 12.4888 11.4442 12.7734 11.4442ZM17.7856 10.9616H16.509V13.0269H17.0607V11.4228H17.5968C17.7546 11.4228 17.8825 11.5507 17.8825 11.7085V13.0269H18.4212V11.5972C18.4212 11.2463 18.1366 10.9616 17.7856 10.9616ZM15.577 12.121C15.577 12.2587 15.5223 12.3907 15.425 12.488C15.3277 12.5853 15.1957 12.64 15.058 12.64H14.9644C14.8268 12.64 14.6947 12.5853 14.5974 12.488C14.5001 12.3907 14.4454 12.2587 14.4454 12.121V11.9161C14.4454 11.6251 14.6808 11.3891 14.9719 11.3891H15.05C15.3411 11.3891 15.577 11.6251 15.577 11.9161V12.121ZM15.1832 10.9616H14.8387C14.5686 10.9616 14.3097 11.0689 14.1187 11.2598C13.9278 11.4508 13.8205 11.7098 13.8205 11.9798V12.0675C13.8205 12.3328 13.9258 12.5872 14.1134 12.7748C14.3009 12.9624 14.5552 13.0679 14.8205 13.0681H15.2014C15.3328 13.0681 15.4629 13.0422 15.5843 12.9919C15.7057 12.9416 15.816 12.8679 15.9089 12.775C16.0018 12.6821 16.0755 12.5718 16.1258 12.4504C16.176 12.329 16.2019 12.1989 16.2019 12.0675V11.9798C16.2019 11.846 16.1756 11.7136 16.1244 11.59C16.0732 11.4665 15.9981 11.3542 15.9035 11.2597C15.8089 11.1651 15.6966 11.0901 15.573 11.039C15.4494 10.9878 15.317 10.9616 15.1832 10.9616Z" fill="#FFFFFB"/>
<path fill-rule="evenodd" clip-rule="evenodd" d="M9.29137 11.8165C9.27586 11.9712 9.28495 12.0498 9.26516 12.1525C9.24964 12.2307 9.21914 12.2724 9.21165 12.2836C9.14779 12.3773 9.05557 12.448 8.94853 12.4854C8.84149 12.5227 8.7253 12.5247 8.61702 12.4912C8.50875 12.4576 8.41411 12.3901 8.34702 12.2987C8.27993 12.2073 8.24393 12.0968 8.24431 11.9835C8.2443 11.8703 8.28051 11.7601 8.34764 11.6689C8.41477 11.5778 8.5093 11.5105 8.6174 11.477C8.7255 11.4435 8.8415 11.4454 8.94843 11.4825C9.05535 11.5196 9.14759 11.59 9.21165 11.6833C9.26087 11.5019 9.35451 11.3409 9.47917 11.2071C9.28674 11.0306 9.03516 10.9325 8.774 10.9321C8.49516 10.9321 8.22775 11.0429 8.03059 11.2401C7.83342 11.4372 7.72266 11.7046 7.72266 11.9835C7.72266 12.2623 7.83342 12.5297 8.03059 12.7269C8.22775 12.924 8.49516 13.0348 8.774 13.0348C8.9187 13.0347 9.0618 13.0045 9.19424 12.9462C9.32668 12.888 9.44557 12.8028 9.54337 12.6961C9.58243 12.6544 9.65145 12.5731 9.71191 12.4522C9.74401 12.388 9.79805 12.2772 9.81089 12.1242C9.81463 12.0766 9.81089 12.0744 9.81249 12.0252C9.81677 11.9337 9.82533 11.7491 9.9302 11.6196C10.0308 11.4955 10.2057 11.4415 10.3556 11.4559C10.5995 11.48 10.843 11.6935 10.843 11.9835C10.843 12.3179 10.5187 12.5137 10.3122 12.5137C10.2262 12.5137 10.1415 12.4928 10.0654 12.4527C9.98935 12.4126 9.9242 12.3546 9.87563 12.2836C9.82587 12.465 9.73277 12.626 9.60865 12.7598C9.80058 12.9361 10.0516 13.0342 10.3122 13.0348C10.4589 13.035 10.6041 13.0045 10.7383 12.9452C10.8725 12.8859 10.9928 12.7992 11.0915 12.6906C11.1902 12.5821 11.2651 12.454 11.3113 12.3148C11.3576 12.1756 11.3741 12.0282 11.36 11.8821C11.3459 11.7361 11.3013 11.5946 11.2292 11.4668C11.1571 11.3391 11.0591 11.2278 10.9414 11.1402C10.8237 11.0525 10.689 10.9905 10.5459 10.9581C10.4028 10.9257 10.2545 10.9236 10.1105 10.9519C10.0468 10.9648 9.82159 11.0161 9.60865 11.2071C9.59153 11.2227 9.57012 11.2419 9.54337 11.2708C9.50217 11.3157 9.31973 11.5378 9.29137 11.8165Z" fill="#FFFFFB"/>
</svg>
