<svg width="24" height="24" viewBox="0 0 24 24" fill="none" xmlns="http://www.w3.org/2000/svg">
<path d="M20 4H4V20H20V4Z" fill="#005BAA"/>
<mask id="mask0_55072_5549" style="mask-type:luminance" maskUnits="userSpaceOnUse" x="6" y="6" width="12" height="10">
<path d="M6.29541 6.3125H17.4707V15.4132H6.29541V6.3125Z" fill="white"/>
</mask>
<g mask="url(#mask0_55072_5549)">
<path fill-rule="evenodd" clip-rule="evenodd" d="M7.48391 14.4999C7.46862 14.5408 7.4648 14.5889 7.42604 14.62C6.65791 13.5134 6.32544 11.2832 7.29501 9.51167C8.43492 7.43003 10.6225 6.40585 12.839 6.72413C15.0342 7.03859 16.4601 8.61033 16.8685 9.80102L16.2778 9.63724C15.6691 9.468 15.0609 9.29603 14.4506 9.13225C14.3075 9.09403 14.1858 9.01924 14.0602 8.94936C13.4914 8.63381 12.9203 8.32208 12.358 7.99507C12.1283 7.86084 11.8733 7.77588 11.609 7.74558C11.4124 7.72155 11.2154 7.69098 11.021 7.65113C10.9282 7.63202 10.8845 7.65386 10.8452 7.74066C10.7191 8.02073 10.5788 8.29424 10.4549 8.57594C10.4057 8.68622 10.3419 8.76593 10.2278 8.80632C10.0318 8.8762 9.92259 9.01214 9.85326 9.21195C9.70913 9.62523 9.53662 10.0281 9.38048 10.4376C9.34445 10.532 9.29859 10.6014 9.19486 10.6303C8.96175 10.6958 8.83728 10.8487 8.75266 11.0845C8.34157 12.2271 7.90919 13.3627 7.48391 14.4999ZM8.67186 12.7938C8.76576 12.7589 8.80725 12.6874 8.83837 12.5973C8.94865 12.2768 9.06766 11.9596 9.17685 11.6392C9.22107 11.5082 9.31879 11.4754 9.45036 11.4508C9.43507 11.5065 9.42579 11.5453 9.41324 11.5829C9.11789 12.4892 8.8209 13.3944 8.52664 14.3001C8.49825 14.3874 8.45949 14.466 8.40599 14.5403C8.22037 14.7969 8.03803 15.0545 7.85514 15.3128C7.83876 15.3362 7.80109 15.3619 7.82785 15.3936C7.83986 15.4088 7.87643 15.4045 7.90209 15.4083C8.0293 15.428 8.11828 15.3826 8.20236 15.2784C8.52828 14.8738 8.86294 14.4764 9.19759 14.079C9.24711 14.0206 9.28226 13.9514 9.30023 13.877C9.4378 13.3343 9.57756 12.7922 9.71678 12.2501C9.75226 12.1125 9.79048 11.976 9.82869 11.8319C10.0192 12.005 10.0514 12.0776 10.034 12.2954C10.0094 12.6011 9.98155 12.9074 9.95753 13.2136C9.94661 13.3561 9.90076 13.479 9.81395 13.5974C9.4591 14.0828 9.11407 14.5747 8.76576 15.0638C8.70259 15.152 8.63907 15.2398 8.57523 15.3275C8.53974 15.3772 8.53592 15.4061 8.61235 15.4094C8.75429 15.4149 8.87822 15.3985 9.00106 15.3002C9.37775 14.9983 9.76755 14.7117 10.1524 14.4191C10.1912 14.3896 10.2354 14.3443 10.2829 14.3879C10.3282 14.4294 10.2747 14.4698 10.2562 14.5064C10.1251 14.7685 9.99247 15.0311 9.8549 15.2904C9.80358 15.387 9.82378 15.4116 9.93024 15.4105C10.355 15.4061 10.7797 15.4067 11.2044 15.4105C11.2855 15.4117 11.3649 15.387 11.431 15.3401C12.1442 14.8624 12.8585 14.3863 13.5738 13.9119C13.606 13.8922 13.634 13.8663 13.6562 13.8358C13.6784 13.8053 13.6944 13.7706 13.7032 13.7339C13.9161 12.9407 14.1361 12.1485 14.3496 11.3553C14.3736 11.2679 14.408 11.2341 14.5035 11.2314C14.901 11.2194 15.2979 11.197 15.6947 11.1768C15.8181 11.1713 15.941 11.1598 16.1037 11.1478C15.8667 10.9939 15.6636 10.8612 15.4589 10.7307C15.4332 10.7144 15.3989 10.7105 15.3683 10.7051C14.1656 10.5047 12.9634 10.3044 11.7602 10.1067C11.6936 10.0974 11.6326 10.0644 11.5882 10.0139C11.3611 9.76826 11.1324 9.52477 10.9058 9.27856C10.8813 9.25235 10.8354 9.23052 10.8616 9.16937L11.7498 9.23761C11.5593 9.0247 11.3617 8.84072 11.163 8.65728C11.1193 8.61689 11.08 8.57976 11.0811 8.51043C11.0854 8.33901 11.086 8.16704 11.0811 7.99561C11.0794 7.90717 11.1171 7.9028 11.1902 7.917C11.389 7.95631 11.5904 7.98579 11.7897 8.024C11.8951 8.0442 12.001 8.05567 12.0992 8.11299C12.8865 8.57485 13.6759 9.03289 14.4648 9.49038C14.515 9.51986 14.5696 9.54606 14.6253 9.56135C15.5353 9.8092 16.4465 10.0543 17.356 10.3044C17.4838 10.3393 17.4838 10.2934 17.4554 10.1963C17.3939 9.97412 17.312 9.7581 17.2108 9.55098C16.3499 7.85585 15.0107 6.77654 13.1327 6.39657C13.1098 6.40858 13.0906 6.40312 13.0743 6.38456L12.97 6.36819C12.9476 6.38129 12.928 6.37747 12.911 6.35836L12.7527 6.3398C12.7309 6.35399 12.7112 6.35072 12.6943 6.33161L12.4557 6.31414L11.7122 6.3125L11.4463 6.33106C11.4299 6.35017 11.4103 6.35399 11.3879 6.3398L11.2296 6.3589C11.2132 6.37801 11.193 6.38183 11.1711 6.36764L11.0669 6.38402C11.0505 6.40203 11.0314 6.40804 11.0085 6.39548L10.9047 6.41295C10.8883 6.43206 10.8692 6.43697 10.8463 6.42715C8.72645 6.92558 7.29993 8.20471 6.55691 10.2465C6.42918 10.6089 6.34953 10.9864 6.31998 11.3695C6.31725 11.4001 6.3238 11.4334 6.29541 11.4568V12.4335C6.3369 12.4553 6.32216 12.4968 6.32489 12.5301C6.41825 13.5423 6.75891 14.4633 7.34033 15.2958C7.3638 15.3286 7.378 15.3848 7.4184 15.3826C7.47026 15.3799 7.46971 15.316 7.48609 15.2773C7.794 14.5495 8.10409 13.8229 8.40326 13.0914C8.46004 12.9527 8.53101 12.8457 8.67186 12.7938Z" fill="white"/>
</g>
<path fill-rule="evenodd" clip-rule="evenodd" d="M7.67578 15.6905C7.71618 15.7391 7.75167 15.7844 7.78934 15.8275C8.32182 16.4343 8.98376 16.9138 9.72631 17.2306C10.3552 17.4997 11.0147 17.6384 11.6949 17.6875L12.3976 17.6799L12.6132 17.669C12.6389 17.6439 12.6678 17.6422 12.6989 17.6575L12.8299 17.6411C12.8474 17.6231 12.8665 17.6188 12.8889 17.6324L13.1553 17.5871C13.1717 17.5685 13.1908 17.5625 13.2137 17.574C14.7877 17.2535 15.9734 16.3183 16.373 15.6801C16.2065 15.655 7.78661 15.6621 7.67633 15.6911M17.6172 12.4821C17.4289 12.4204 17.2405 12.356 17.0549 12.2844C16.9621 12.2484 16.9304 12.2784 16.9059 12.3663C16.8251 12.6584 16.7366 12.9477 16.6515 13.2376C16.6094 13.3807 16.5641 13.5193 16.4817 13.6482C16.129 14.1941 15.7829 14.7455 15.4357 15.2947C15.4171 15.3242 15.3789 15.3531 15.3964 15.3892C15.4149 15.4285 15.4613 15.4072 15.4946 15.4077C15.6661 15.4099 15.838 15.4088 16.0095 15.4088C16.1902 15.4088 16.3709 15.4072 16.5516 15.4094C16.6105 15.4105 16.652 15.3957 16.6881 15.3439C17.264 14.5195 17.6085 13.61 17.7035 12.6071C17.7111 12.5334 17.6838 12.5039 17.6172 12.4821ZM14.2188 15.4094C14.2952 15.4055 14.3722 15.4088 14.4492 15.4088C14.4808 15.4088 14.5131 15.4045 14.5436 15.4094C14.6987 15.4361 14.7855 15.3673 14.863 15.2325C15.0748 14.8645 15.3107 14.5108 15.5236 14.1439C15.6508 13.9255 15.8102 13.7421 16.0078 13.587C16.0984 13.5161 16.1934 13.4473 16.2409 13.3304C16.3845 12.9789 16.5325 12.63 16.6853 12.2833C16.7235 12.196 16.6973 12.1654 16.6193 12.1354C16.4419 12.0686 16.2667 11.9959 16.0941 11.9176C15.9947 11.8717 15.9521 11.8815 15.9139 11.9951C15.7157 12.5711 15.5045 13.1426 15.3047 13.7181C15.2693 13.8246 15.2039 13.9186 15.1163 13.9888C14.9809 14.1002 14.816 14.1865 14.7243 14.3382C14.5311 14.6593 14.3542 14.9901 14.1686 15.3155C14.132 15.3799 14.1293 15.4143 14.2188 15.4094ZM14.7342 13.1732C14.8013 13.1951 15.0912 13.0968 15.1229 13.0378C15.3243 12.6595 15.5225 12.279 15.7278 11.9023C15.7736 11.8193 15.7551 11.7876 15.6732 11.7549C15.4127 11.6525 15.1537 11.5464 14.8963 11.4366C14.8204 11.4038 14.7948 11.4186 14.7871 11.501C14.7642 11.7254 14.7352 11.9492 14.708 12.1736C14.7009 12.2288 14.6998 12.2817 14.7407 12.3265C14.798 12.3904 14.7958 12.4641 14.7844 12.5432C14.756 12.7305 14.732 12.9188 14.7069 13.1039C14.7096 13.1312 14.6959 13.1607 14.7342 13.1732ZM14.5174 13.6733C14.4541 13.563 14.4235 13.5909 14.3629 13.6684C14.1593 13.9277 13.9513 14.1837 13.7455 14.4409L12.9692 15.4088C13.2252 15.4088 13.4408 15.405 13.657 15.4105C13.7411 15.4132 13.7848 15.3821 13.8235 15.3084C14.0517 14.8727 14.2799 14.4365 14.5191 14.0069C14.5868 13.8851 14.5862 13.7929 14.518 13.6738" fill="white"/>
</svg>
