<svg width="24" height="24" viewBox="0 0 24 24" fill="none" xmlns="http://www.w3.org/2000/svg">
<path d="M20 4H4V20H20V4Z" fill="#EEEEEE"/>
<mask id="mask0_55072_5541" style="mask-type:luminance" maskUnits="userSpaceOnUse" x="4" y="12" width="4" height="5">
<path d="M4.96875 12.7505H7.60488V16.2845H4.96875V12.7505Z" fill="white"/>
</mask>
<g mask="url(#mask0_55072_5541)">
<path fill-rule="evenodd" clip-rule="evenodd" d="M6.28652 14.8325C5.86491 14.8266 5.53796 14.5173 5.53385 14.0687C5.53796 13.6206 5.86549 13.3101 6.2877 13.3066C6.72108 13.3131 7.03391 13.6112 7.04038 14.0699C7.03391 14.5262 6.72108 14.8249 6.28652 14.8314V14.8325ZM7.60488 14.0634C7.60599 13.8899 7.57268 13.718 7.50687 13.5575C7.44106 13.397 7.34406 13.2512 7.22149 13.1284C6.97294 12.8847 6.63811 12.7493 6.29005 12.7515H6.28005C5.86373 12.7509 5.53326 12.9967 5.53385 13.0026C5.51738 12.882 5.38684 12.7721 5.25277 12.7709C5.17815 12.7709 5.10653 12.8002 5.05338 12.8526C5.00023 12.905 4.96983 12.9762 4.96875 13.0508V16.0027C4.96921 16.0771 4.99885 16.1484 5.0513 16.2012C5.10376 16.2539 5.17483 16.284 5.24924 16.285C5.32411 16.285 5.39598 16.2555 5.44925 16.2029C5.50252 16.1502 5.53292 16.0787 5.53385 16.0039V15.1271C5.75906 15.3112 5.99368 15.3835 6.27006 15.3859H6.2877C6.63635 15.3893 6.97215 15.2544 7.22149 15.0107C7.4567 14.7773 7.60136 14.4497 7.60488 14.0846V14.0634Z" fill="#00A4AF"/>
</g>
<path fill-rule="evenodd" clip-rule="evenodd" d="M14.052 13.0938C13.9411 12.9842 13.8096 12.8976 13.6651 12.839C13.5206 12.7804 13.3659 12.7509 13.21 12.7522H13.2C12.8867 12.7509 12.5858 12.874 12.3632 13.0944C12.2544 13.2037 12.1683 13.3334 12.1099 13.4761C12.0515 13.6188 12.0219 13.7717 12.0227 13.9259V15.0872C12.0232 15.1617 12.0529 15.2331 12.1055 15.2859C12.1581 15.3387 12.2293 15.3687 12.3038 15.3695C12.3787 15.3696 12.4507 15.3402 12.504 15.2875C12.5573 15.2349 12.5877 15.1633 12.5884 15.0884V13.9217C12.5961 13.5689 12.8307 13.3196 13.2082 13.3125C13.584 13.3196 13.8186 13.5683 13.8256 13.9229V15.0872C13.8261 15.1617 13.8558 15.2331 13.9084 15.2859C13.961 15.3387 14.0322 15.3687 14.1067 15.3695C14.1815 15.3695 14.2533 15.3401 14.3065 15.2876C14.3598 15.2351 14.3902 15.1637 14.3913 15.089V13.9253C14.3924 13.7711 14.363 13.6182 14.3047 13.4754C14.2465 13.3326 14.1606 13.2033 14.052 13.0938ZM10.2981 14.8326C9.85763 14.8273 9.55126 14.5151 9.54538 14.0699C9.55126 13.626 9.85763 13.3131 10.2981 13.3078C10.7379 13.3131 11.0449 13.6254 11.0507 14.0711C11.0449 14.5151 10.7385 14.8273 10.2981 14.8326ZM11.2413 13.1391L11.1431 13.0485C10.9053 12.8549 10.6076 12.7501 10.301 12.7522H10.291C9.92054 12.7533 9.5889 12.8992 9.35427 13.1385C9.11906 13.3778 8.98029 13.7083 8.9797 14.0676V14.0717C8.9797 14.4322 9.11847 14.7626 9.35486 15.002C9.5889 15.2413 9.92054 15.3877 10.2916 15.3889H10.3269C10.3269 15.3889 10.7708 15.3771 11.0501 15.1149L11.0596 15.1531C11.0895 15.2766 11.1989 15.3677 11.3318 15.3695C11.4066 15.3695 11.4784 15.34 11.5316 15.2873C11.5848 15.2347 11.6151 15.1632 11.6158 15.0884V14.0546C11.6143 13.7123 11.48 13.3838 11.2413 13.1385M5.53444 8.01029C5.53467 7.93527 5.5051 7.86324 5.45222 7.81003C5.39934 7.75682 5.32749 7.7268 5.25248 7.72656C5.17746 7.72633 5.10543 7.7559 5.05222 7.80878C4.99901 7.86166 4.96899 7.93351 4.96875 8.00852V10.9005C4.96844 10.9754 4.99791 11.0474 5.05068 11.1006C5.10344 11.1538 5.17519 11.1839 5.25012 11.1842C5.32506 11.1845 5.39705 11.155 5.45026 11.1022C5.50347 11.0495 5.53354 10.9777 5.53385 10.9028L5.53444 8.01029ZM8.57513 12.1994C8.57545 12.1245 8.54598 12.0525 8.49321 11.9993C8.44044 11.9461 8.3687 11.916 8.29376 11.9157C8.21883 11.9154 8.14683 11.9448 8.09363 11.9976C8.04042 12.0504 8.01035 12.1221 8.01004 12.1971V15.0896C8.00973 15.1644 8.03916 15.2363 8.09188 15.2895C8.14459 15.3426 8.21626 15.3727 8.29112 15.373C8.36597 15.3733 8.43789 15.3439 8.49104 15.2912C8.5442 15.2384 8.57423 15.1668 8.57455 15.0919L8.57513 12.1994ZM6.44588 8.02146C6.3954 8.01862 6.34486 8.02611 6.29738 8.04347C6.24989 8.06083 6.20644 8.0877 6.16969 8.12243C6.13295 8.15717 6.10368 8.19904 6.08367 8.24547C6.06367 8.29191 6.05335 8.34194 6.05335 8.39251C6.05335 8.44307 6.06367 8.4931 6.08367 8.53954C6.10368 8.58598 6.13295 8.62785 6.16969 8.66258C6.20644 8.69731 6.24989 8.72418 6.29738 8.74155C6.34486 8.75891 6.3954 8.7664 6.44588 8.76355C6.54181 8.75973 6.63254 8.71894 6.69906 8.64972C6.76558 8.5805 6.80274 8.48822 6.80274 8.39221C6.80274 8.29621 6.76558 8.20393 6.69906 8.13471C6.63254 8.06548 6.54181 8.02528 6.44588 8.02146ZM6.72872 9.36217C6.72904 9.28731 6.6996 9.21539 6.64688 9.16224C6.59417 9.10908 6.5225 9.07905 6.44765 9.07874C6.37279 9.07842 6.30087 9.10786 6.24772 9.16058C6.19456 9.21329 6.16453 9.28496 6.16422 9.35981L6.16363 10.9005C6.16324 10.9754 6.19263 11.0474 6.24534 11.1007C6.29806 11.1539 6.36977 11.1841 6.44471 11.1845C6.51964 11.1849 6.59166 11.1555 6.64493 11.1028C6.69819 11.05 6.72833 10.9783 6.72872 10.9034V9.36217ZM18.6146 15.3689L18.6357 15.3695C18.7087 15.3695 18.779 15.3418 18.8323 15.2921C18.8857 15.2423 18.9182 15.1741 18.9233 15.1013C18.935 14.9426 18.8251 14.8161 18.6563 14.7926C18.3876 14.7226 18.4105 14.4504 18.4105 14.3434V13.5189H18.7422C18.8187 13.5189 18.8922 13.4885 18.9463 13.4344C19.0005 13.3802 19.0309 13.3068 19.0309 13.2302C19.0309 13.1536 19.0005 13.0802 18.9463 13.0261C18.8922 12.9719 18.8187 12.9415 18.7422 12.9415H18.4105V12.1929C18.4105 12.1164 18.3801 12.0429 18.3259 11.9888C18.2718 11.9346 18.1984 11.9042 18.1218 11.9042C18.0452 11.9042 17.9718 11.9346 17.9176 11.9888C17.8635 12.0429 17.8331 12.1164 17.8331 12.1929V12.9415H17.679C17.6024 12.9415 17.529 12.9719 17.4748 13.0261C17.4207 13.0802 17.3903 13.1536 17.3903 13.2302C17.3903 13.3068 17.4207 13.3802 17.4748 13.4344C17.529 13.4885 17.6024 13.5189 17.679 13.5189H17.8331V14.5315C17.8331 14.6268 17.893 15.3689 18.6146 15.3689Z" fill="#00A4AF"/>
<mask id="mask1_55072_5541" style="mask-type:luminance" maskUnits="userSpaceOnUse" x="7" y="7" width="2" height="5">
<path d="M7.08984 7.71484H8.73985V11.1807H7.08984V7.71484Z" fill="white"/>
</mask>
<g mask="url(#mask1_55072_5541)">
<path fill-rule="evenodd" clip-rule="evenodd" d="M8.45097 8.75329C8.52747 8.75329 8.60083 8.78368 8.65492 8.83777C8.70901 8.89186 8.7394 8.96522 8.7394 9.04172C8.7394 9.11822 8.70901 9.19158 8.65492 9.24567C8.60083 9.29976 8.52747 9.33015 8.45097 9.33015H8.10992V10.8925C8.10992 10.9691 8.0795 11.0426 8.02535 11.0967C7.97121 11.1508 7.89777 11.1813 7.82119 11.1813C7.74462 11.1813 7.67118 11.1508 7.61704 11.0967C7.56289 11.0426 7.53247 10.9691 7.53247 10.8925V9.33015H7.37841C7.33944 9.33191 7.30051 9.32575 7.26398 9.31205C7.22746 9.29835 7.19408 9.27739 7.16588 9.25043C7.13768 9.22348 7.11524 9.19108 7.0999 9.15521C7.08457 9.11934 7.07666 9.08073 7.07666 9.04172C7.07666 9.00271 7.08457 8.9641 7.0999 8.92823C7.11524 8.89236 7.13768 8.85996 7.16588 8.83301C7.19408 8.80605 7.22746 8.78509 7.26398 8.77139C7.30051 8.75769 7.33944 8.75153 7.37841 8.75329H7.53247C7.53659 8.67214 7.52894 8.28228 7.71476 8.06001C7.78709 7.97474 7.86412 7.88713 7.9635 7.83303C8.09698 7.76011 8.24458 7.72836 8.40511 7.7166C8.48153 7.71098 8.55704 7.73596 8.61505 7.78602C8.67305 7.83609 8.7088 7.90714 8.71441 7.98356C8.72003 8.05998 8.69505 8.1355 8.64499 8.1935C8.59492 8.25151 8.52386 8.28725 8.44745 8.29287C8.39255 8.29872 8.33973 8.31708 8.29304 8.34654C8.24635 8.376 8.20704 8.41578 8.17813 8.46281C8.15108 8.51573 8.11109 8.59335 8.1105 8.75329H8.45097Z" fill="#00A4AF"/>
</g>
<path fill-rule="evenodd" clip-rule="evenodd" d="M9.51048 9.56603C9.57398 9.27672 9.88682 9.04268 10.2032 9.04268C10.5207 9.04268 10.7941 9.2679 10.8965 9.56603H9.51048ZM10.2032 8.54639C9.5093 8.54639 8.95479 9.1203 8.95361 9.82359C8.95392 9.8917 8.98108 9.95694 9.02918 10.0052C9.07729 10.0534 9.14247 10.0807 9.21058 10.0811H11.1964C11.2645 10.0807 11.3296 10.0534 11.3778 10.0052C11.4259 9.95694 11.453 9.8917 11.4533 9.82359C11.4521 9.1203 10.8982 8.54697 10.2032 8.54639ZM11.234 10.2805C11.1317 10.2046 10.947 10.2264 10.8741 10.3246C10.7966 10.429 10.6954 10.5135 10.5789 10.5713C10.4623 10.629 10.3338 10.6583 10.2038 10.6568C10.0737 10.6583 9.9446 10.629 9.82808 10.5713C9.71156 10.5135 9.61038 10.429 9.53282 10.3246C9.45991 10.2264 9.27527 10.2046 9.17295 10.2805C9.11804 10.3232 9.08184 10.3856 9.07197 10.4544C9.0621 10.5233 9.07933 10.5933 9.12003 10.6498C9.245 10.8197 9.4081 10.958 9.59621 11.0535C9.78433 11.149 9.99221 11.199 10.2032 11.1996C10.6465 11.1996 11.0417 10.982 11.2875 10.6498C11.3282 10.5933 11.3454 10.5233 11.3356 10.4544C11.3257 10.3856 11.2895 10.3232 11.2346 10.2805M15.3137 13.7551C15.3772 13.4658 15.6901 13.2318 16.0064 13.2312C16.324 13.2318 16.5974 13.457 16.6997 13.7551H15.3137ZM16.0064 12.7355C15.312 12.7355 14.758 13.3094 14.7563 14.0121C14.7566 14.0803 14.7838 14.1457 14.8321 14.1939C14.8803 14.2421 14.9456 14.2694 15.0138 14.2697H16.9996C17.0677 14.2692 17.1329 14.2419 17.181 14.1937C17.2291 14.1455 17.2563 14.0802 17.2566 14.0121C17.2548 13.3094 16.7015 12.7361 16.0064 12.7355ZM17.0372 14.4696C16.9349 14.3937 16.7503 14.4155 16.6774 14.5137C16.5998 14.6181 16.4986 14.7026 16.3821 14.7604C16.2656 14.8181 16.1371 14.8474 16.007 14.8459C15.877 14.8474 15.7479 14.8181 15.6313 14.7604C15.5148 14.7026 15.4136 14.6181 15.3361 14.5137C15.2632 14.4155 15.0779 14.3937 14.9762 14.4696C14.9212 14.5122 14.8849 14.5746 14.8749 14.6434C14.8649 14.7123 14.8821 14.7824 14.9227 14.8389C15.0477 15.0089 15.2109 15.1472 15.3991 15.2427C15.5874 15.3382 15.7954 15.3882 16.0064 15.3887C16.4504 15.3887 16.8444 15.1711 17.0902 14.8389C17.1309 14.7825 17.1481 14.7124 17.1382 14.6436C17.1284 14.5747 17.0922 14.5123 17.0372 14.4696Z" fill="#FEC30C"/>
</svg>
