<svg width="24" height="24" viewBox="0 0 24 24" fill="none" xmlns="http://www.w3.org/2000/svg">
<g clip-path="url(#clip0_55072_5540)">
<path fill-rule="evenodd" clip-rule="evenodd" d="M3.57861 3.85254H20.4214V20.0938H3.57861V3.85254Z" fill="#E7ECEF"/>
<path fill-rule="evenodd" clip-rule="evenodd" d="M15.197 4.58802C16.2078 4.58802 17.2179 4.59679 18.228 4.58194C18.508 4.57789 18.5948 4.65147 18.592 4.92754C18.5738 6.77299 18.5724 8.61777 18.5689 10.4625C18.5689 10.7028 18.5773 10.9755 18.4219 11.1436C18.0782 11.5169 18.2679 11.7997 18.4632 12.1494C19.9969 14.9101 18.3351 18.1035 15.0696 18.6969C13.9517 18.8994 13.951 18.8994 13.9517 17.8288C13.9517 17.5041 13.86 17.1403 13.9825 16.8656C14.1225 16.5524 14.5719 16.682 14.8771 16.5902C16.9057 15.984 17.5357 13.4697 15.9845 12.0555C15.6646 11.7646 15.4273 11.6033 15.9369 11.2543C16.3023 11.0046 16.443 10.5651 16.4423 10.1136C16.4409 9.10917 16.4318 8.10544 16.4493 7.10172C16.4535 6.82902 16.3779 6.74397 16.0923 6.75409C15.5262 6.77546 14.9594 6.77546 14.3934 6.75409C14.0784 6.74194 13.9692 6.82834 13.9755 7.14559C13.9958 8.16484 13.9713 9.18342 13.9895 10.2013C13.9951 10.5138 13.9363 10.6401 13.5695 10.6333C12.3604 10.6141 11.1511 10.613 9.94206 10.6299C9.67606 10.6326 9.55076 10.5827 9.56336 10.2945C9.58436 9.79362 9.58086 9.29074 9.56406 8.78922C9.55566 8.54082 9.63966 8.44632 9.90146 8.45442C10.3607 8.46927 10.8234 8.42674 11.2784 8.46792C11.7075 8.50707 11.7796 8.34439 11.7698 7.97314C11.7432 6.98494 11.7796 5.99539 11.7509 5.00719C11.7404 4.64269 11.8692 4.57317 12.2129 4.58059C13.2069 4.60084 14.2023 4.58734 15.197 4.58734" fill="#009882"/>
<path fill-rule="evenodd" clip-rule="evenodd" d="M4.8788 18.7031C4.8725 16.2225 4.8648 13.7418 4.8613 11.2612C4.8599 10.2717 4.8564 9.28211 4.8704 8.29256C4.8998 6.23516 6.3516 4.76434 8.4922 4.60909C9.6241 4.52741 9.6255 4.52741 9.6227 5.60539C9.6227 5.94491 9.7228 6.34316 9.573 6.60641C9.412 6.88856 8.957 6.70024 8.635 6.76099C7.6249 6.95201 7.0768 7.55884 7.0754 8.53759C7.0726 11.1073 7.081 13.6777 7.0677 16.2468C7.0656 16.5728 7.1461 16.6855 7.4982 16.6673C8.0785 16.6376 8.6616 16.647 9.2433 16.6646C9.5093 16.672 9.5786 16.5816 9.5758 16.3352C9.5639 15.2721 9.5793 14.2089 9.5646 13.1451C9.5611 12.8657 9.6276 12.7604 9.9426 12.7651C11.1676 12.782 12.3926 12.7786 13.6176 12.7665C13.8864 12.7644 14.0054 12.8171 13.9921 13.1053C13.969 13.6062 13.9655 14.1097 13.9928 14.6106C14.0096 14.9251 13.8703 14.9784 13.591 14.9683C13.1171 14.9521 12.6404 14.9838 12.1672 14.9575C11.8522 14.94 11.7808 15.0567 11.7822 15.3369C11.7878 16.458 11.7731 17.5799 11.7654 18.7017C11.6688 18.7638 11.5589 18.7429 11.4546 18.7429C9.3665 18.7443 7.2784 18.7443 5.1903 18.7429C5.0853 18.7429 4.9761 18.7638 4.8788 18.7031Z" fill="#0084A0"/>
</g>
<defs>
<clipPath id="clip0_55072_5540">
<rect width="24" height="24" fill="white"/>
</clipPath>
</defs>
</svg>
