<svg width="24" height="24" viewBox="0 0 24 24" fill="none" xmlns="http://www.w3.org/2000/svg">
<g clip-path="url(#clip0_55072_5523)">
<mask id="mask0_55072_5523" style="mask-type:luminance" maskUnits="userSpaceOnUse" x="4" y="4" width="16" height="16">
<path fill-rule="evenodd" clip-rule="evenodd" d="M4 4H20V20H4V4Z" fill="white"/>
</mask>
<g mask="url(#mask0_55072_5523)">
<path fill-rule="evenodd" clip-rule="evenodd" d="M15.2941 18.6413C13.4825 20.4529 10.5178 20.4529 8.70601 18.6413L5.35899 15.2941C3.54703 13.4825 3.54703 10.5177 5.35882 8.7057L8.70601 5.35884C10.5178 3.54705 13.4825 3.54705 15.2941 5.35884L18.6413 8.7057C20.4529 10.5177 20.4529 13.4825 18.6413 15.2941L15.2941 18.6413Z" fill="#EC1D24"/>
</g>
<path fill-rule="evenodd" clip-rule="evenodd" d="M11.8157 7.78014C11.544 7.78014 11.3266 7.86504 11.1507 8.0398C10.7711 8.41718 10.572 9.19565 10.5896 10.2323C10.611 11.5102 10.9154 14.017 11.9203 15.3079C12.0833 15.517 12.2586 15.6839 12.4412 15.8045C12.6181 15.9217 12.8167 16.0356 13.1268 16.0356C13.2107 16.0356 13.301 16.0271 13.3952 16.0104C13.9717 15.8721 14.6935 15.2306 15.2304 14.3768C15.3123 14.2467 15.4531 14.1689 15.6066 14.1689C15.69 14.1689 15.7714 14.1926 15.8424 14.2371C15.9429 14.3004 16.0127 14.3989 16.039 14.5145C16.0654 14.6302 16.0452 14.7489 15.982 14.8494C15.303 15.929 14.4065 16.6872 13.5841 16.8776C13.5813 16.8787 13.5725 16.8806 13.5635 16.8822C13.4126 16.9097 13.2644 16.9238 13.1233 16.9238C12.5929 16.9238 12.2186 16.7219 11.9519 16.5456C11.6882 16.3712 11.4422 16.1386 11.22 15.8539C9.80512 14.0364 9.70829 10.6299 9.70183 10.2475C9.68657 9.3409 9.81706 8.11276 10.5252 7.40973C10.8708 7.067 11.3037 6.89307 11.8121 6.89307H11.8945C12.4042 6.89307 12.8378 7.067 13.1831 7.40973C13.8912 8.11276 14.0218 9.3409 14.0064 10.2475C13.9903 11.1922 13.8172 13.0215 12.8379 14.6619C12.7582 14.7954 12.6119 14.8781 12.4562 14.8781C12.3762 14.8781 12.2976 14.8564 12.2291 14.8154C12.0193 14.6901 11.9504 14.417 12.0754 14.2066C12.7608 13.0585 13.0923 11.7959 13.1183 10.2323C13.1361 9.19532 12.9369 8.41685 12.5574 8.0398C12.3815 7.86504 12.1646 7.78014 11.8937 7.78014H11.8157Z" fill="#FEFEFE"/>
<path fill-rule="evenodd" clip-rule="evenodd" d="M10.0149 16.917C9.74893 16.917 9.53189 16.7086 9.52094 16.443C9.51547 16.3108 9.5619 16.1843 9.65127 16.0871C9.7408 15.9896 9.86284 15.9329 9.99499 15.9278C10.2672 15.9149 10.4986 16.1286 10.5102 16.4019C10.5214 16.6744 10.3085 16.9054 10.0359 16.9165C10.0291 16.9169 10.0219 16.917 10.0149 16.917Z" fill="#FEFEFE"/>
</g>
<defs>
<clipPath id="clip0_55072_5523">
<rect width="24" height="24" fill="white"/>
</clipPath>
</defs>
</svg>
