<svg width="24" height="24" viewBox="0 0 24 24" fill="none" xmlns="http://www.w3.org/2000/svg">
<g clip-path="url(#clip0_55072_5537)">
<path fill-rule="evenodd" clip-rule="evenodd" d="M4 4H20V20H4V4Z" fill="#46B035"/>
<path fill-rule="evenodd" clip-rule="evenodd" d="M9.47466 11.6733C9.37937 11.68 9.28369 11.6678 9.1931 11.6375C9.1025 11.6072 9.01876 11.5594 8.94666 11.4967C8.87456 11.4341 8.81551 11.3578 8.77289 11.2723C8.73027 11.1868 8.70491 11.0938 8.69826 10.9985C8.69264 10.9032 8.7059 10.8077 8.73726 10.7176C8.76863 10.6275 8.81749 10.5444 8.88105 10.4732C8.9446 10.402 9.0216 10.344 9.10761 10.3026C9.19362 10.2613 9.28696 10.2373 9.38226 10.2321C9.57423 10.2196 9.76332 10.2837 9.90805 10.4104C10.0528 10.5372 10.1413 10.7161 10.1543 10.9081C10.1599 11.003 10.1468 11.0981 10.1156 11.1879C10.0845 11.2777 10.036 11.3605 9.97282 11.4316C9.90967 11.5026 9.83313 11.5606 9.74759 11.602C9.66205 11.6435 9.56917 11.6677 9.47426 11.6733M16.2015 10.6013C15.7291 10.1285 14.9467 10.2105 14.4855 10.6933C13.8859 11.3161 13.4199 11.5481 12.8643 11.5245C12.0883 11.4913 11.7059 10.8989 11.3071 10.1509C10.8935 9.36888 10.2575 8.93408 9.46426 8.93408C8.21706 8.93408 7.46826 9.93248 7.46826 11.0457C7.46826 12.7585 8.68746 13.7829 9.53106 14.2153C10.2323 14.5753 11.0119 14.7261 11.7055 14.7433C11.6542 15.1968 11.5543 15.6435 11.4075 16.0757H12.8351C12.6943 15.6937 12.5695 15.1089 12.5319 14.6981C14.6223 14.4301 15.6151 13.4913 16.1587 12.5973C16.4027 12.2057 16.5327 11.7989 16.5315 11.4333C16.5299 11.1133 16.4263 10.8221 16.2015 10.6013Z" fill="white"/>
</g>
<defs>
<clipPath id="clip0_55072_5537">
<rect width="16" height="16" fill="white" transform="translate(4 4)"/>
</clipPath>
</defs>
</svg>
