<svg width="24" height="24" viewBox="0 0 24 24" fill="none" xmlns="http://www.w3.org/2000/svg">
<g clip-path="url(#clip0_55072_5520)">
<mask id="mask0_55072_5520" style="mask-type:luminance" maskUnits="userSpaceOnUse" x="5" y="9" width="7" height="10">
<path d="M5.40091 9.67073C5.22582 10.4276 5.30743 16.9321 5.37061 17.6846C5.41426 18.2377 5.66144 18.5605 6.34876 18.5477C11.1445 18.475 12.4023 12.9936 9.44025 10.4139C8.96597 10.0013 8.38807 9.66234 7.69239 9.43204C7.34291 9.31567 6.76641 9.14687 6.27472 9.14687C5.85332 9.14687 5.49275 9.27303 5.40091 9.67073Z" fill="white"/>
</mask>
<g mask="url(#mask0_55072_5520)">
<path d="M5.39505 9.67098C5.21996 10.4279 5.30157 16.9323 5.36475 17.6849C5.4084 18.2379 5.65558 18.5608 6.3429 18.548C11.1386 18.4752 12.3965 12.9938 9.43439 10.4141C8.96012 10.0016 8.38221 9.66258 7.68653 9.43228C7.33705 9.31592 6.76055 9.14711 6.26886 9.14711C5.84746 9.14711 5.48689 9.27327 5.39505 9.67098Z" fill="url(#paint0_linear_55072_5520)"/>
</g>
<mask id="mask1_55072_5520" style="mask-type:luminance" maskUnits="userSpaceOnUse" x="11" y="4" width="6" height="9">
<path d="M11.2662 4.51691C11.108 5.20192 11.1833 11.1077 11.2384 11.7926C11.2797 12.2931 11.5027 12.5858 12.1267 12.5772C16.482 12.5086 17.6261 7.53166 14.9364 5.19006C14.5058 4.81607 13.9768 4.50793 13.3503 4.29972C13.0319 4.19278 12.5095 4.03915 12.0627 4.03915C11.6767 4.03915 11.3508 4.15691 11.2662 4.51691Z" fill="white"/>
</mask>
<g mask="url(#mask1_55072_5520)">
<path d="M11.2613 4.51691C11.1032 5.20192 11.1784 11.1077 11.2335 11.7926C11.2748 12.2931 11.4979 12.5858 12.1218 12.5772C16.4771 12.5086 17.6212 7.53166 14.9315 5.19006C14.5009 4.81607 13.9719 4.50793 13.3454 4.29972C13.027 4.19278 12.5046 4.03915 12.0578 4.03915C11.6719 4.03915 11.3459 4.15691 11.2613 4.51691Z" fill="url(#paint1_linear_55072_5520)"/>
</g>
<mask id="mask2_55072_5520" style="mask-type:luminance" maskUnits="userSpaceOnUse" x="12" y="9" width="7" height="11">
<path d="M12.255 9.83219C12.0534 10.695 12.1508 18.1143 12.2211 18.9748C12.2749 19.6073 12.5522 19.9717 13.3356 19.9607C18.8091 19.8784 20.2477 13.623 16.8685 10.6796C16.328 10.2096 15.6617 9.8218 14.8751 9.56072C14.4732 9.42601 13.8153 9.23401 13.2571 9.23401C12.7732 9.23401 12.3603 9.37851 12.255 9.83219Z" fill="white"/>
</mask>
<g mask="url(#mask2_55072_5520)">
<path d="M12.2589 9.83219C12.0573 10.695 12.1548 18.1143 12.225 18.9748C12.2788 19.6073 12.5561 19.9717 13.3395 19.9607C18.813 19.8784 20.2516 13.623 16.8724 10.6796C16.3319 10.2096 15.6656 9.8218 14.879 9.56072C14.4771 9.42601 13.8192 9.23401 13.261 9.23401C12.7771 9.23401 12.3642 9.37851 12.2589 9.83219Z" fill="url(#paint2_linear_55072_5520)"/>
</g>
</g>
<defs>
<linearGradient id="paint0_linear_55072_5520" x1="11.0605" y1="13.8893" x2="5.13191" y2="13.8293" gradientUnits="userSpaceOnUse">
<stop stop-color="#F47920"/>
<stop offset="0.1" stop-color="#F47920"/>
<stop offset="0.44066" stop-color="#F47920"/>
<stop offset="1" stop-color="#C9242B"/>
</linearGradient>
<linearGradient id="paint1_linear_55072_5520" x1="11.1789" y1="8.29831" x2="16.4898" y2="8.35199" gradientUnits="userSpaceOnUse">
<stop stop-color="#15B1E7"/>
<stop offset="1" stop-color="#0060AF"/>
</linearGradient>
<linearGradient id="paint2_linear_55072_5520" x1="11.5773" y1="14.5838" x2="19.4194" y2="14.6631" gradientUnits="userSpaceOnUse">
<stop stop-color="#8CC63F"/>
<stop offset="0.378511" stop-color="#8CC63F"/>
<stop offset="1" stop-color="#009559"/>
</linearGradient>
<clipPath id="clip0_55072_5520">
<rect width="24" height="24" fill="white"/>
</clipPath>
</defs>
</svg>
