<svg width="24" height="24" viewBox="0 0 24 24" fill="none" xmlns="http://www.w3.org/2000/svg">
<path d="M20 4H4V20H20V4Z" fill="#EE3124"/>
<path fill-rule="evenodd" clip-rule="evenodd" d="M11.7907 10.7779C11.6078 10.7779 11.4246 10.7825 11.2418 10.7761C11.1419 10.7727 11.1082 10.8141 11.1091 10.9075C11.1112 11.1235 11.114 11.3395 11.1079 11.5554C11.1045 11.6795 11.1569 11.7206 11.2758 11.7175C11.636 11.7089 11.9966 11.7098 12.3572 11.6994C12.5946 11.6927 12.8106 11.4942 12.8326 11.2776C12.8529 11.0809 12.6776 10.8606 12.4497 10.8021C12.3906 10.7877 12.3301 10.7801 12.2693 10.7795C12.11 10.7764 11.9503 10.7785 11.7907 10.7779ZM11.9041 13.222V13.2208C12.1155 13.2208 12.3262 13.2248 12.5373 13.2199C12.7511 13.2146 12.912 13.0949 12.9745 12.9052C13.0848 12.571 12.8709 12.287 12.4889 12.2784C12.0763 12.2699 11.6633 12.2784 11.2506 12.2735C11.144 12.2723 11.1088 12.3189 11.1097 12.4163C11.1109 12.6415 11.1116 12.8666 11.1091 13.0918C11.1085 13.1862 11.1443 13.226 11.243 13.2235C11.4636 13.2183 11.6835 13.222 11.9041 13.222ZM13.0511 11.9534L13.3222 12.0716C13.9511 12.3504 14.0158 13.199 13.6285 13.581C13.4156 13.7906 13.1424 13.8715 12.8578 13.8782C12.06 13.8981 11.2617 13.8984 10.4633 13.9104C10.3665 13.9119 10.3441 13.8733 10.3441 13.7866C10.346 12.597 10.3463 11.4075 10.3441 10.2179C10.3438 10.1217 10.3736 10.0886 10.4731 10.0892C11.1168 10.0935 11.7604 10.088 12.404 10.0948C12.6724 10.0978 12.9353 10.1468 13.1813 10.2645C13.8035 10.561 13.884 11.3477 13.3329 11.7641C13.2484 11.8281 13.1568 11.8826 13.0511 11.9534ZM8.73396 13.9049V10.7638C8.72017 10.7592 8.70639 10.7546 8.69199 10.7504L7.56829 12.2968C7.64427 12.3042 7.69114 12.3121 7.73832 12.3127C7.9353 12.3143 8.1329 12.317 8.33019 12.3121C8.4227 12.3097 8.45579 12.3434 8.44966 12.4353C8.44354 12.5333 8.44109 12.6329 8.44997 12.7309C8.46069 12.8531 8.41903 12.8973 8.29281 12.8942C7.9595 12.8859 7.62558 12.8936 7.29227 12.8875C7.18719 12.8853 7.11857 12.9184 7.05791 13.0057C6.87318 13.2716 6.67834 13.5308 6.49116 13.7952C6.4351 13.8748 6.3726 13.9147 6.26997 13.911C6.05093 13.903 5.83158 13.9085 5.58252 13.9085C5.63828 13.8249 5.67626 13.763 5.71885 13.7042C6.55304 12.5514 7.38877 11.3998 8.22021 10.2452C8.29894 10.1358 8.37859 10.0828 8.51951 10.0877C8.84271 10.099 9.16653 10.0914 9.5029 10.0914C9.5078 10.1465 9.51515 10.1919 9.51515 10.2369C9.51607 11.4075 9.51393 12.578 9.51822 13.7483C9.51883 13.8739 9.48023 13.9128 9.35738 13.9076C9.15734 13.8984 8.95668 13.9049 8.73396 13.9049ZM18.4177 13.9085H18.1043C16.9586 13.9085 15.8128 13.9061 14.6671 13.9116C14.5268 13.9125 14.4961 13.8681 14.4967 13.7361C14.5016 12.575 14.5013 11.4145 14.4967 10.2538C14.4967 10.1327 14.5237 10.0834 14.6521 10.0923C14.8062 10.103 14.9624 10.104 15.1165 10.0923C15.2528 10.0819 15.2798 10.1376 15.2792 10.262C15.2749 11.1878 15.2767 12.1136 15.277 13.0394C15.277 13.2217 15.2776 13.222 15.4636 13.222C16.2338 13.222 17.0039 13.2238 17.7738 13.2199C17.8792 13.2192 17.9478 13.2493 18.0069 13.3378C18.1295 13.5207 18.2639 13.6959 18.4177 13.9085Z" fill="white"/>
</svg>
