<svg width="24" height="24" viewBox="0 0 24 24" fill="none" xmlns="http://www.w3.org/2000/svg">
<g clip-path="url(#clip0_55072_5522)">
<path fill-rule="evenodd" clip-rule="evenodd" d="M20.8941 12.8447C20.6263 10.272 17.6608 8.16458 14.2666 8.136C10.8732 8.10906 8.33802 10.1723 8.60583 12.7451C8.87038 15.3195 11.8392 17.4277 15.2317 17.4555C18.6242 17.4824 21.1594 15.42 20.8941 12.8447ZM9.66728 12.2013C9.43784 10.1274 11.6391 8.46178 14.5875 8.48383C17.5367 8.50669 20.1143 10.2066 20.3446 12.2805C20.5765 14.3561 18.3752 16.0201 15.426 15.9972C12.4785 15.976 9.89998 14.276 9.66809 12.2005" fill="#FAB478"/>
<path fill-rule="evenodd" clip-rule="evenodd" d="M9.57621 11.8471C7.63295 13.8516 7.6003 16.9347 9.50354 18.7334C11.406 20.5322 14.525 20.3664 16.4666 18.3619C18.4115 16.3582 18.4442 13.2752 16.5393 11.4756C14.6368 9.67686 11.5178 9.84261 9.57621 11.8471ZM15.7677 17.5054C14.098 19.2331 11.4133 19.3752 9.77625 17.8271C8.13837 16.279 8.16613 13.6262 9.83749 11.9018C11.5097 10.1766 14.1935 10.0345 15.8306 11.5834C17.4668 13.1314 17.4407 15.7826 15.7677 17.5054Z" fill="#F68C3B"/>
<path fill-rule="evenodd" clip-rule="evenodd" d="M6.52897 6.49811C2.92251 9.31746 2.00395 13.404 4.47711 15.6233C6.95109 17.8433 11.8811 17.3575 15.4867 14.5373C19.094 11.718 20.0126 7.6314 17.5378 5.41217C15.0638 3.19212 10.1346 3.67875 6.52897 6.49811ZM9.75657 5.39339C13.2332 4.10659 16.6706 5.40809 17.4349 8.30011C18.1991 11.1905 15.9995 14.579 12.5253 15.8649C9.04704 17.1525 5.60959 15.8494 4.84699 12.9582C4.08111 10.0662 6.28075 6.67937 9.75575 5.39257" fill="#F4741C"/>
</g>
<defs>
<clipPath id="clip0_55072_5522">
<rect width="24" height="24" fill="white"/>
</clipPath>
</defs>
</svg>
