<svg width="24" height="24" viewBox="0 0 24 24" fill="none" xmlns="http://www.w3.org/2000/svg">
<path d="M20 4H4V20H20V4Z" fill="#003CDC"/>
<path d="M6.8013 12.0395L7.09185 11.6498C6.87615 11.5473 6.65603 11.3915 6.49425 11.1822C6.33231 10.9813 6.22445 10.7352 6.22445 10.4439V10.1077H5.6847V10.4521C5.6847 10.7475 5.58093 11.0101 5.41491 11.2356C5.24888 11.4653 5.02876 11.6458 4.79639 11.7769L5.12011 12.1502C5.30689 12.0395 5.48942 11.9 5.63894 11.7401C5.78438 11.5883 5.90041 11.4202 5.971 11.2602C6.14128 11.5718 6.4029 11.8262 6.8013 12.0395ZM7.86398 11.3135H8.46583V10.8828H7.86398V10.0215H7.34923V12.1871H7.86398V11.3135ZM5.6847 13.9057H7.86382V12.3348H5.6847V13.9057ZM7.34906 12.7655V13.4792H6.1952V12.7655H7.34906ZM10.5868 12.105L10.8773 11.7073C10.6574 11.5965 10.4374 11.4489 10.2838 11.2519C10.122 11.0591 10.0223 10.8213 10.0223 10.5137V10.1077H9.47425V10.5219C9.47425 10.8008 9.37882 11.0469 9.22521 11.2602C9.0716 11.4775 8.84331 11.6663 8.59019 11.8302L8.90966 12.2118C9.10902 12.0928 9.28747 11.9369 9.43683 11.7851C9.58227 11.6334 9.69421 11.4735 9.75647 11.3257C9.82281 11.457 9.93491 11.6006 10.0802 11.7359C10.2256 11.8796 10.4041 12.0067 10.5868 12.105ZM11.3007 12.2076H11.8155V10.0215H11.3007V10.7024H10.5743V11.1536H11.3007V12.2076ZM11.753 13.0608C11.753 12.7983 11.6452 12.5767 11.4667 12.4168C11.2841 12.257 11.0309 12.1625 10.732 12.1625C10.4332 12.1625 10.1841 12.2568 10.0057 12.4168C9.82298 12.5767 9.71921 12.7983 9.71921 13.0608C9.71921 13.3355 9.82298 13.557 10.0057 13.7171C10.1841 13.8689 10.4332 13.959 10.732 13.959C11.0309 13.959 11.2841 13.8687 11.4667 13.7171C11.6452 13.557 11.753 13.3355 11.753 13.0608ZM11.2468 13.0608C11.2468 13.3437 11.0309 13.5323 10.732 13.5323C10.4332 13.5323 10.2256 13.3437 10.2256 13.0608C10.2256 12.7818 10.4332 12.5932 10.732 12.5932C10.8814 12.5932 11.0059 12.6424 11.1014 12.7245C11.1474 12.7678 11.1841 12.82 11.2091 12.8779C11.2341 12.9357 11.2469 12.9979 11.2468 13.0608ZM13.8742 12.138L14.1688 11.7524C13.737 11.4898 13.4798 11.0961 13.4798 10.5506V10.161H12.9651V10.5589C12.9651 10.8541 12.8862 11.1002 12.7575 11.3094C12.6247 11.5226 12.4379 11.6949 12.2346 11.8467L12.5582 12.2281C12.8572 12.019 13.1144 11.7319 13.2349 11.453C13.2971 11.5843 13.3926 11.7194 13.5088 11.8384C13.6164 11.954 13.7393 12.0548 13.8742 12.138ZM15.0529 12.2486H15.5509V10.0215H15.0529V10.8583H14.7375V10.0625H14.2394V12.0928H14.7375V11.2847H15.0529V12.2486ZM15.5218 13.1099C15.5218 12.8598 15.4099 12.6424 15.2272 12.4906C15.0445 12.3389 14.7831 12.2486 14.4842 12.2486C14.1812 12.2486 13.9197 12.339 13.737 12.4906C13.5503 12.6424 13.4383 12.8598 13.4383 13.1099C13.4383 13.3725 13.5503 13.594 13.737 13.7456C13.9197 13.8934 14.1812 13.9795 14.4842 13.9795C14.7832 13.9795 15.0447 13.8934 15.2272 13.7456C15.4099 13.5939 15.5218 13.3725 15.5218 13.1099ZM15.003 13.1099C15.003 13.3765 14.7873 13.5488 14.4842 13.5488C14.1688 13.5488 13.9488 13.3765 13.9488 13.1099C13.9488 12.8475 14.1688 12.6712 14.4842 12.6712C14.7873 12.6712 15.003 12.8475 15.003 13.1099ZM18.693 12.183H19.2035V10.0215H18.693V10.4686H17.95V10.1692H16.1695V11.941H17.95V11.6745H18.693V12.183ZM19.1413 13.0608C19.1413 12.7983 19.0334 12.5767 18.855 12.4168C18.6723 12.257 18.4192 12.1625 18.1203 12.1625C17.8214 12.1625 17.5724 12.2568 17.3939 12.4168C17.2112 12.5767 17.1074 12.7983 17.1074 13.0608C17.1074 13.3355 17.2112 13.557 17.3939 13.7171C17.5724 13.8689 17.8214 13.959 18.1203 13.959C18.4192 13.959 18.6723 13.8687 18.855 13.7171C19.0334 13.557 19.1413 13.3355 19.1413 13.0608ZM18.6349 13.0608C18.6349 13.3437 18.4192 13.5323 18.1201 13.5323C17.8214 13.5323 17.6139 13.3437 17.6139 13.0608C17.6139 12.7818 17.8214 12.5932 18.1203 12.5932C18.2696 12.5932 18.3942 12.6424 18.4896 12.7245C18.5357 12.7678 18.5723 12.82 18.5973 12.8779C18.6223 12.9357 18.635 12.9979 18.6349 13.0608ZM17.4354 10.5957V11.5103H16.68V10.5957H17.4354ZM18.693 10.8993V11.2437H17.95V10.8993H18.693Z" fill="white"/>
</svg>
