<svg width="24" height="24" viewBox="0 0 24 24" fill="none" xmlns="http://www.w3.org/2000/svg">
<g clip-path="url(#clip0_55072_5529)">
<path fill-rule="evenodd" clip-rule="evenodd" d="M12.0023 4.55193H17.7884C18.0314 4.55193 18.0328 4.55264 18.0328 4.7949C18.0335 7.60181 18.0371 10.4087 18.0314 13.2156C18.03 13.9212 17.7842 14.5682 17.4791 15.1912C16.8709 16.4343 15.8969 17.3342 14.7477 18.0666C13.9092 18.6026 13.0219 19.0581 12.0976 19.427C12.0287 19.4548 11.9522 19.4576 11.8815 19.4347C10.4385 18.8393 9.06188 18.1295 7.90211 17.0629C6.96902 16.2181 6.32573 15.1008 6.06356 13.8697C6.00609 13.6027 5.97674 13.3305 5.97598 13.0574C5.96821 11.3107 5.97174 9.56466 5.97174 7.81865C5.97174 7.58415 5.97457 7.58133 6.20906 7.58133L14.4016 7.58062C14.6298 7.58062 14.6312 7.58203 14.6312 7.80805C14.6312 9.39727 14.6185 10.9858 14.6361 12.5743C14.6446 13.3089 14.319 13.869 13.8253 14.3613C13.3146 14.8698 12.7206 15.2682 12.1019 15.6319C12.0496 15.6623 11.9564 15.6778 11.9076 15.6524C11.1483 15.2562 10.4265 14.8055 9.87344 14.1338C9.52734 13.7136 9.36771 13.229 9.37407 12.6838C9.38113 12.0495 9.37478 11.4145 9.37548 10.7802C9.37548 10.5754 9.3889 10.5599 9.58738 10.5599C10.1108 10.5585 10.6334 10.5585 11.1561 10.5599C11.3546 10.5599 11.3652 10.5698 11.3652 10.7647C11.3673 11.471 11.3694 12.1759 11.3652 12.8815C11.3652 12.9988 11.3998 13.0835 11.4902 13.157C11.6315 13.2728 11.7692 13.3936 11.9041 13.5172C11.9726 13.5801 12.0291 13.5864 12.1005 13.5207C12.2488 13.383 12.4084 13.2552 12.5525 13.1132C12.5997 13.0628 12.6273 12.9971 12.6302 12.9281C12.6344 11.8213 12.6302 10.7145 12.6344 9.60846C12.6351 9.45165 12.544 9.45519 12.4367 9.45519H9.16288C8.87329 9.45519 8.5837 9.45801 8.29482 9.45377C8.17474 9.45236 8.1253 9.48909 8.1253 9.61976C8.13025 10.6905 8.12883 11.7613 8.12813 12.8321C8.12742 13.6677 8.47422 14.3648 8.99337 14.9899C9.64812 15.7796 10.4724 16.3573 11.3595 16.8524C11.4704 16.9139 11.5926 16.9584 11.6971 17.0283C11.8935 17.1597 12.0715 17.1399 12.2777 17.034C13.3443 16.4859 14.3232 15.8276 15.0861 14.8868C15.4724 14.4093 15.7472 13.8767 15.8475 13.2644C15.8694 13.1302 15.8715 12.9917 15.8715 12.8554V6.64263C15.8715 6.44486 15.8715 6.44486 15.6674 6.44486L6.22743 6.44627C5.97457 6.44627 5.97315 6.44627 5.97315 6.19694C5.97315 5.71453 5.97739 5.23211 5.97033 4.75041C5.9675 4.59784 6.01695 4.54911 6.17092 4.54981C8.11471 4.55405 10.0585 4.55264 12.003 4.55264" fill="#EC6305"/>
</g>
<defs>
<clipPath id="clip0_55072_5529">
<rect width="24" height="24" fill="white"/>
</clipPath>
</defs>
</svg>
