<svg width="24" height="24" viewBox="0 0 24 24" fill="none" xmlns="http://www.w3.org/2000/svg">
<g clip-path="url(#clip0_55072_5530)">
<path d="M12 3C7.0301 3 3 7.0301 3 12C3 16.9699 7.0301 21 12 21C16.9699 21 21 16.9699 21 12C21 7.0301 16.9699 3 12 3ZM12.1884 19.3511C11.111 19.5035 9.35842 19.2284 8.17098 18.4791C7.1317 17.8208 6.51152 16.9995 6.10936 16.1656C5.69873 15.3126 5.504 14.2796 5.94214 14.3304C6.14746 14.3537 6.32314 14.7432 6.71896 15.2491C6.98989 15.5941 7.23754 15.8862 7.42592 15.9243C7.51058 15.9412 7.57832 15.9031 7.6397 15.7909C7.75188 15.5771 7.90216 15.1707 8.17309 14.8405C8.39111 14.5887 8.65357 14.4701 8.80809 15.0861C8.88217 15.393 8.94144 15.7084 8.97531 15.9835C9.02399 16.373 9.04939 16.6058 9.18274 16.6714C9.31185 16.7349 9.53198 16.6524 9.88547 16.5212C10.1395 16.4259 10.4654 16.3053 10.8803 16.1867C11.2613 16.0767 11.5026 16.1359 11.2571 16.7265C11.1406 17.0059 11.0242 17.2408 10.6136 17.8335C10.5416 17.9372 10.5543 18.0409 10.6453 18.1298C10.7829 18.2653 11.0962 18.4325 11.4391 18.5828C11.7143 18.7013 12.0423 18.805 12.2582 18.8664C12.5969 18.9638 12.5313 19.3046 12.1905 19.3532L12.1884 19.3511ZM16.8069 17.4165C16.4725 17.9626 15.7698 18.551 14.9167 18.9426C14.7876 18.9998 14.65 18.9828 14.6141 18.877C14.5844 18.786 14.6564 18.6802 14.7411 18.5807C15.8502 17.1413 15.0268 15.8206 13.234 14.7961C11.9111 14.0383 11.0687 13.6044 10.0929 13.0287C7.23119 11.3438 6.67874 9.877 6.56656 9.00706C6.28504 6.8142 8.09901 5.16957 9.96378 4.77375C10.0209 4.76317 10.1691 4.73777 10.2178 4.86265C10.2665 4.98754 10.1564 5.07643 10.0908 5.11665C9.25682 5.57596 8.43768 6.55174 8.52658 7.63335C8.57738 8.23871 8.83561 9.10865 10.4718 10.2749C11.4603 10.9798 12.671 11.5576 15.1115 13.0202C17.6896 14.5654 17.3953 16.4513 16.8069 17.4123V17.4165ZM17.2112 9.18485C16.6228 9.90663 16.0343 9.63782 15.5814 8.62182C15.2999 7.98895 14.9273 7.83655 14.6649 8.00165C14.3791 8.18156 14.4913 8.61548 14.813 9.115C15.0226 9.44097 14.9294 9.8262 14.7114 10.0527C14.4828 10.2919 14.1082 10.3871 13.6997 10.2961C12.9737 10.1352 12.2603 9.16369 12.781 7.0428C12.9906 6.18556 12.58 5.81938 12.3196 5.4913C12.1884 5.3262 12.1736 5.22672 12.2201 5.1611C12.2709 5.08913 12.3916 5.08278 12.6054 5.12935C12.8848 5.18862 13.2996 5.33043 13.6362 5.38335C13.8605 5.41722 14.1124 5.4278 14.3812 5.41722C15.1051 5.3897 15.6385 5.50188 16.1846 5.77281C17.1117 6.23213 17.2048 7.01952 16.6905 6.95814C16.5127 6.93697 16.282 6.8015 16.0936 6.70837C15.9666 6.64699 15.8565 6.62794 15.7761 6.68509C15.6999 6.74012 15.6682 6.85442 15.7211 6.96872C15.8354 7.21002 16.2248 7.3349 16.7519 7.48095C17.6747 7.73495 17.6938 8.59219 17.2112 9.18274V9.18485Z" fill="#0046FF"/>
<path d="M12.1917 19.351C11.1143 19.5034 9.36174 19.2283 8.1743 18.479C7.13502 17.8207 6.51484 16.9994 6.11268 16.1655C5.70205 15.3125 5.50732 14.2795 5.94546 14.3303C6.15078 14.3536 6.32646 14.7431 6.72227 15.249C6.9932 15.594 7.24085 15.8861 7.42923 15.9242C7.5139 15.9411 7.58163 15.903 7.64302 15.7908C7.7552 15.577 7.90548 15.1706 8.17641 14.8404C8.39443 14.5886 8.65689 14.47 8.81141 15.086C8.88549 15.3929 8.94476 15.7083 8.97862 15.9834C9.02731 16.3729 9.05271 16.6057 9.18606 16.6713C9.31517 16.7348 9.5353 16.6523 9.88878 16.5211C10.1428 16.4258 10.4687 16.3052 10.8836 16.1866C11.2646 16.0766 11.5059 16.1358 11.2604 16.7264C11.144 17.0058 11.0275 17.2407 10.6169 17.8334C10.5449 17.9371 10.5576 18.0408 10.6487 18.1297C10.7862 18.2652 11.0995 18.4324 11.4424 18.5827C11.7176 18.7012 12.0457 18.8049 12.2615 18.8663C12.6002 18.9637 12.5346 19.3045 12.1938 19.3531L12.1917 19.351ZM16.8102 17.4164C16.4758 17.9625 15.7731 18.5509 14.9201 18.9425C14.7909 18.9997 14.6534 18.9827 14.6174 18.8769C14.5877 18.7859 14.6597 18.68 14.7444 18.5806C15.8535 17.1412 15.0301 15.8204 13.2373 14.796C11.9144 14.0382 11.072 13.6043 10.0962 13.0286C7.2345 11.3437 6.68206 9.87689 6.56987 9.00695C6.28836 6.8141 8.10233 5.16946 9.9671 4.77365C10.0242 4.76306 10.1724 4.73767 10.2211 4.86255C10.2698 4.98743 10.1597 5.07633 10.0941 5.11655C9.26014 5.57586 8.44099 6.55164 8.52989 7.63324C8.58069 8.23861 8.83892 9.10855 10.4751 10.2748C11.4636 10.9797 12.6743 11.5575 15.1148 13.0201C17.6929 14.5653 17.3987 16.4512 16.8102 17.4122V17.4164ZM17.2145 9.18475C16.6261 9.90653 16.0377 9.63771 15.5847 8.62172C15.3032 7.98884 14.9306 7.83644 14.6682 8.00154C14.3824 8.18146 14.4946 8.61537 14.8163 9.1149C15.0259 9.44086 14.9328 9.82609 14.7147 10.0526C14.4861 10.2918 14.1115 10.387 13.703 10.296C12.977 10.1351 12.2637 9.16358 12.7844 7.0427C12.9939 6.18545 12.5833 5.81927 12.3229 5.49119C12.1917 5.32609 12.1769 5.22661 12.2234 5.161C12.2742 5.08903 12.3949 5.08268 12.6087 5.12925C12.8881 5.18851 13.3029 5.33033 13.6395 5.38324C13.8639 5.41711 14.1157 5.42769 14.3846 5.41711C15.1084 5.38959 15.6418 5.50178 16.1879 5.77271C17.115 6.23202 17.2082 7.01942 16.6938 6.95803C16.516 6.93687 16.2853 6.8014 16.0969 6.70827C15.9699 6.64688 15.8599 6.62783 15.7794 6.68498C15.7032 6.74002 15.6715 6.85432 15.7244 6.96862C15.8387 7.20991 16.2282 7.3348 16.7552 7.48084C17.6781 7.73484 17.6971 8.59209 17.2145 9.18263V9.18475Z" fill="white"/>
</g>
<defs>
<clipPath id="clip0_55072_5530">
<rect width="24" height="24" fill="white"/>
</clipPath>
</defs>
</svg>
