<svg width="24" height="24" viewBox="0 0 24 24" fill="none" xmlns="http://www.w3.org/2000/svg">
<path d="M20 4H4V20H20V4Z" fill="#003CDC"/>
<path fill-rule="evenodd" clip-rule="evenodd" d="M12.982 9.94343V10.2753H12.1978V10.699H14.2282V10.2978H13.5043V9.94287L12.982 9.94343Z" fill="white"/>
<path fill-rule="evenodd" clip-rule="evenodd" d="M6.41019 13.4725H7.79672V12.6483H6.41076L6.41019 13.4725ZM5.9082 13.9345H8.32068V12.2077H5.9082V13.9345ZM11.2357 11.1017H10.6132V10.6375H11.2357V9.97607H11.7789V12.0471H11.2357V11.1017ZM10.492 13.6145C10.0374 13.6145 9.66777 13.3615 9.66777 13.0505C9.66777 12.7407 10.0374 12.4883 10.492 12.4883C10.9484 12.4883 11.3146 12.7401 11.3146 13.0505C11.3146 13.3615 10.9484 13.6145 10.492 13.6145ZM10.492 12.0471C9.75961 12.0471 9.16522 12.4956 9.16522 13.05C9.16522 13.6061 9.75904 14.0568 10.492 14.0568C11.2262 14.0568 11.8189 13.6061 11.8189 13.0505C11.8189 12.4956 11.2262 12.0471 10.492 12.0471ZM14.5136 9.97607V13.9345H14.9959V11.8911H15.477V11.4888H14.9959V9.97607H14.5136ZM15.637 10.1558V10.6026H16.2004C16.2004 10.6026 16.3216 12.4483 15.397 13.0708L15.7182 13.4128C15.7182 13.4128 16.2213 13.0917 16.4027 12.4685C16.4027 12.4685 16.7644 13.2122 17.0658 13.4128L17.4067 13.0708C17.4067 13.0708 16.588 12.5671 16.6433 10.6031H17.2461V10.1552L15.637 10.1558ZM17.4884 9.97607V13.9345H17.9701V11.7913H18.2123V13.9345H18.7149V9.97607H18.2123V11.3902H17.9701V9.97664L17.4884 9.97607ZM12.7113 11.7429C12.7113 11.4888 12.9524 11.2843 13.2493 11.2843C13.5457 11.2843 13.7874 11.4888 13.7874 11.7429C13.7874 11.997 13.5451 12.2021 13.2493 12.2021C12.9524 12.2021 12.7113 11.997 12.7113 11.7429ZM13.4877 12.9103V12.5722C13.9299 12.4798 14.2595 12.1446 14.2595 11.7429C14.2595 11.273 13.8071 10.8894 13.2493 10.8894C12.6899 10.8894 12.2386 11.273 12.2386 11.7429C12.2386 12.1373 12.5541 12.4685 12.9845 12.566V12.8894H12.1806V13.3114H14.3108V12.9103H13.4882H13.4877Z" fill="white"/>
<path fill-rule="evenodd" clip-rule="evenodd" d="M6.08913 10.0439C6.08913 10.0439 6.20801 11.1194 5.28516 11.6422L5.56686 11.965C5.56686 11.965 6.10828 11.6631 6.35055 11.1014C6.35055 11.1014 6.73197 11.8225 7.11508 11.9442L7.39565 11.6625C7.39565 11.6625 6.57253 11.1521 6.6114 10.0444H6.08913V10.0439ZM9.46728 10.0439C9.46728 10.0439 9.58785 11.1194 8.66274 11.6422L8.94444 11.965C8.94444 11.965 9.48531 11.6631 9.72757 11.1014C9.72757 11.1014 10.1107 11.8225 10.4921 11.9442L10.7738 11.6625C10.7738 11.6625 9.95011 11.1521 9.98842 10.0444H9.46671L9.46728 10.0439ZM7.7968 9.96387V12.0056H8.30104V11.1014H8.72472V10.6371H8.30104V9.96387H7.7968Z" fill="white"/>
</svg>
