<svg width="24" height="24" viewBox="0 0 24 24" fill="none" xmlns="http://www.w3.org/2000/svg">
<path d="M20 4H4V20H20V4Z" fill="#DF0843"/>
<mask id="mask0_55072_5518" style="mask-type:luminance" maskUnits="userSpaceOnUse" x="6" y="6" width="12" height="12">
<path d="M6.67139 6.29565H17.3285V17.7047H6.67139V6.29565Z" fill="white"/>
</mask>
<g mask="url(#mask0_55072_5518)">
<path fill-rule="evenodd" clip-rule="evenodd" d="M11.9999 6.88425C14.6415 6.88425 16.8066 8.88842 17.0157 11.4377C16.9338 11.5385 16.8183 11.6063 16.6904 11.6286C16.2422 11.7233 16.1045 11.3357 15.7323 11.0903C15.3583 10.8444 15.0155 10.7492 14.6693 10.4025C14.5304 10.2636 14.4947 10.0273 14.3565 9.88172C14.1723 9.6868 14.0596 9.63184 13.8097 9.53494C13.3711 9.36495 12.9949 9.2386 12.63 8.93715C12.5682 8.88559 12.4237 8.81816 12.2883 8.79322C12.2305 8.78303 12.2044 8.79153 12.1846 8.81476C12.1308 8.88275 12.0809 8.96775 12.0327 9.04707C12.0056 9.09052 11.9736 9.13081 11.9375 9.1672C11.8673 9.2318 11.7789 9.31169 11.7115 9.35249C11.3454 9.57404 10.8615 9.76613 10.6536 10.1412C10.6139 10.2121 10.2139 10.3962 10.1215 10.471C9.97588 10.5889 9.83309 10.7067 9.68407 10.8184C9.54467 10.9215 9.35032 11.0835 9.20526 11.1912C9.13081 11.1627 9.05428 11.14 8.97635 11.1232C8.80409 11.0886 8.6596 10.9589 8.51228 10.8665C8.32246 10.7475 8.33662 10.7339 8.27713 10.7005L8.17853 10.6433C8.03801 10.5617 8.02951 10.6444 7.83006 10.7662C7.6629 10.8699 7.47081 11.0399 7.32802 11.1748C7.21356 11.2813 7.09684 11.3958 6.97785 11.5147C7.14897 8.92922 9.33162 6.88425 11.9999 6.88425ZM7.92752 14.7553C7.53438 14.2241 7.25261 13.6189 7.0991 12.9761C7.14387 12.9857 7.1977 12.9999 7.28779 13.0293C7.5847 13.1257 8.14227 13.3093 8.54457 13.1223C8.80069 13.0033 9.24493 12.907 9.41605 12.8378C9.57697 12.7727 9.91922 12.9228 9.51578 12.6576C9.49543 12.6477 9.47418 12.6397 9.45231 12.6338C9.41208 12.6231 9.08967 12.6899 9.01771 12.6792C8.9954 12.6733 8.9739 12.6648 8.95368 12.6537C8.77746 12.5579 9.52598 11.9748 9.54977 11.8275C9.33559 11.8502 9.15823 11.9862 8.96558 12.0712C8.73949 12.1709 8.49301 12.1732 8.25049 12.1743C7.97398 12.1743 7.75809 12.3896 7.51501 12.4893C7.38808 12.5403 7.179 12.5896 7.03904 12.6826C7.02848 12.6223 7.01904 12.5619 7.01071 12.5012C7.01524 12.3959 7.02714 12.2695 7.05207 12.125C7.1076 11.8077 7.23623 11.5635 7.52181 11.1827C7.52181 11.1827 7.80002 10.8478 7.96265 10.7402C8.02554 10.6982 8.09467 10.6359 8.16097 10.6778C8.23123 10.7226 8.14113 10.9963 8.33096 11.0427C8.44541 11.0711 8.34455 11.2598 8.38422 11.3708C8.42615 11.4887 7.91165 11.9374 8.04764 11.993C8.123 12.0241 8.46411 11.8513 8.64487 11.7935C8.80522 11.7425 8.97408 11.7397 9.14917 11.5754C9.32879 11.4071 9.50841 11.3142 9.50841 11.3142C9.65403 11.1918 9.79682 11.0648 9.94132 10.9402C10.0824 10.8178 10.2167 10.6903 10.3533 10.5622C10.4388 10.4806 10.8253 10.2687 10.8598 10.1939C11.0394 9.80522 11.5086 9.57914 11.8577 9.33152C11.9217 9.28619 11.9914 9.19213 12.0305 9.13774C12.0701 9.08334 12.1121 9.00288 12.1347 8.97681C12.1801 8.92582 12.1908 8.88729 12.2407 8.86349C12.2611 8.85385 12.3393 8.85329 12.3739 8.89069C12.4872 9.01194 12.6419 9.11564 12.6475 9.24313C12.6566 9.43975 13.2051 9.6103 13.3298 9.76273C13.3808 9.82619 13.4114 9.88455 13.4329 9.94405C13.3366 9.90438 13.2431 9.85905 13.1592 9.79842C13.1037 9.75876 12.975 9.76953 12.9082 9.75706C12.7195 9.72136 12.7631 9.81259 12.8685 9.92082C12.9762 10.0324 13.0997 10.1293 13.1983 10.25C13.3116 10.39 13.3014 10.5033 13.3315 10.6699C13.3643 10.8495 13.4708 11.0042 13.5581 11.1606C13.6465 11.3193 13.6397 11.4887 13.689 11.6581C13.7417 11.8281 13.8868 11.9714 14.0063 12.0955C14.1094 12.2038 14.3429 12.4684 14.4709 12.4112C14.6064 12.3511 14.7741 12.516 14.8251 12.4712C14.8761 12.4259 14.6891 12.2094 14.7611 12.142C14.833 12.0751 15.1447 12.1788 15.2076 12.3794C15.2807 12.61 15.2739 12.631 15.2614 12.7987C15.255 12.9034 15.2102 13.0021 15.1356 13.0758C15.0432 13.1699 14.8296 13.3234 14.8721 13.4798C15.0682 13.3733 15.2818 13.3625 15.5011 13.371C15.7141 13.3784 15.8705 13.29 16.0133 13.137C16.0756 13.0701 16.257 12.8582 16.3601 12.9642C16.4224 13.0288 16.2394 13.2889 16.4394 13.235C16.5726 13.1982 16.6921 13.0956 16.8134 13.0293C16.8437 13.0129 16.8729 12.9943 16.9007 12.9738C16.7452 13.6276 16.457 14.2424 16.0541 14.7802L16.1997 14.8998C16.8133 14.1139 17.194 13.1716 17.2986 12.18C17.4033 11.1885 17.2276 10.1874 16.7916 9.29076C16.3556 8.39408 15.6768 7.63771 14.8323 7.10765C13.9879 6.57758 13.0116 6.29508 12.0145 6.29226C11.0175 6.28944 10.0397 6.56642 9.19219 7.0917C8.34473 7.61699 7.66164 8.36951 7.22059 9.26371C6.77954 10.1579 6.59822 11.1579 6.69725 12.15C6.79627 13.1422 7.17167 14.0866 7.78076 14.876L7.92752 14.7553ZM10.092 14.7593C10.0835 14.8199 10.0053 15.3078 9.91865 15.8478C9.74551 15.8083 9.57906 15.7438 9.42455 15.6562C9.26934 15.5718 9.12732 15.4651 9.00298 15.3395L9.83536 14.6159C9.94641 14.5218 10.0008 14.5003 10.0529 14.5286C10.1039 14.557 10.1136 14.6148 10.092 14.7593ZM10.3992 13.9677C10.3975 13.966 10.3867 13.9603 10.372 13.9524L10.3453 13.9371C10.3458 13.9374 10.3464 13.9376 10.347 13.9377C10.0966 13.7994 9.84782 13.8062 9.56337 14.013C9.17013 14.2997 7.27703 15.9027 7.27703 15.9027L7.82269 16.3674L8.49924 15.7781C8.87903 16.1133 9.32721 16.362 9.81269 16.5067L9.67047 17.3935L10.3521 17.6105C10.3521 17.6105 10.7131 15.157 10.7476 14.6709C10.7737 14.3218 10.6485 14.1059 10.3992 13.9677ZM11.6231 17.7035H12.3285V14.2051H11.6236L11.6231 17.7035ZM14.5004 15.6591C14.3231 15.7554 14.165 15.8143 14.008 15.8483C13.923 15.3089 13.8454 14.8199 13.8352 14.7593C13.8142 14.6153 13.825 14.5575 13.8766 14.5292C13.9276 14.5003 13.9825 14.5224 14.0924 14.617C14.14 14.6573 14.5129 14.9819 14.9243 15.3412C14.7991 15.4671 14.6563 15.5742 14.5004 15.6591ZM13.5842 13.9377L13.5575 13.953C13.5482 13.9574 13.5391 13.9626 13.5303 13.9682L13.5315 13.9671C13.2822 14.1054 13.1552 14.3207 13.1802 14.6709C13.2153 15.157 13.5717 17.6117 13.5717 17.6117L14.2545 17.3947C14.2545 17.3947 14.1922 16.9969 14.1128 16.509C14.5984 16.3642 15.0469 16.116 15.4274 15.7815L16.1034 16.3719L16.6502 15.9078C16.6502 15.9078 14.7594 14.302 14.3667 14.0153C14.0834 13.8079 13.8341 13.8005 13.5842 13.9377ZM13.7315 12.9347C13.6085 12.6939 13.1739 12.882 12.9546 12.6797C12.8935 12.6231 12.7654 12.508 12.6997 12.308C12.6454 12.1239 12.5348 11.9614 12.3835 11.8434C12.1002 11.6241 11.4321 11.2881 11.478 10.8376C11.499 10.6359 11.7426 10.5923 11.8424 10.4461C11.903 10.3583 11.9104 10.2421 11.9823 10.1622C12.0622 10.0727 11.95 10.0698 11.8713 10.0659C11.703 10.0596 11.5772 10.2427 11.4378 10.3169C11.2089 10.4387 11.0026 10.6098 10.7448 10.6659C10.6694 10.6824 10.2824 10.8019 10.5351 10.8654C10.7068 10.9079 10.8995 10.8966 11.0423 11.0195C11.2259 11.1765 11.3749 11.3782 11.559 11.5363C11.6525 11.6173 11.7438 11.6932 11.8197 11.7924C11.9064 11.9052 11.8956 12.0343 11.9602 12.1533C12.0225 12.2667 12.1466 12.1624 12.2237 12.227C12.4753 12.4355 12.1245 12.5386 12.035 12.635C11.916 12.763 11.8934 12.8469 11.6763 12.9347C11.5811 12.9732 10.9607 13.048 10.8848 13.1058C10.8094 13.1636 10.8485 13.1806 10.8683 13.2022C10.8887 13.2248 10.9958 13.2588 11.0423 13.2634C11.3029 13.2883 12.1053 13.4402 12.2696 13.2345C12.3818 13.0939 12.5489 13.0781 12.7337 13.1285C12.8629 13.1636 13.1212 13.1376 13.3445 13.0463C13.4737 12.9936 13.8318 12.9874 13.7321 12.9347H13.7315Z" fill="white"/>
</g>
</svg>
