<svg width="24" height="24" viewBox="0 0 24 24" fill="none" xmlns="http://www.w3.org/2000/svg">
<g clip-path="url(#clip0_55072_5526)">
<g clip-path="url(#clip1_55072_5526)">
<mask id="mask0_55072_5526" style="mask-type:luminance" maskUnits="userSpaceOnUse" x="3" y="3" width="18" height="18">
<path d="M3 3H21V21H3V3Z" fill="white"/>
</mask>
<g mask="url(#mask0_55072_5526)">
<mask id="mask1_55072_5526" style="mask-type:luminance" maskUnits="userSpaceOnUse" x="3" y="3" width="18" height="18">
<path d="M21 3H3V21H21V3Z" fill="white"/>
</mask>
<g mask="url(#mask1_55072_5526)">
<path d="M3 12C3 12.5299 3 12.5888 3.01263 13.0388C3.0463 14.0355 3.15154 15.1795 3.55145 16.3865C3.83349 17.2401 4.36389 18.1612 4.89429 18.7416C5.56781 19.4817 6.49812 20.0873 7.50421 20.4322C8.53133 20.7855 9.64266 20.9579 11.8021 21H12.2021C14.3658 20.9538 15.4729 20.7855 16.5 20.4322C17.5061 20.0873 18.4322 19.4817 19.1056 18.7416C19.6362 18.157 20.1665 17.2401 20.4486 16.3865C20.8485 15.1795 20.9579 14.0313 20.9873 13.0388C21 12.593 21 12.5299 21 12C21 11.4701 21 11.4112 20.9873 10.9612C20.9538 9.96449 20.8485 8.82056 20.4486 7.61355C20.1665 6.75982 19.6362 5.83878 19.1056 5.2584C18.4322 4.51822 17.5019 3.91262 16.5 3.56776C15.4729 3.21449 14.3616 3.04206 12.2021 3H11.8021C9.63844 3.04626 8.53133 3.21449 7.50421 3.56776C6.49812 3.91262 5.57202 4.51822 4.89429 5.2584C4.36389 5.84299 3.83349 6.75982 3.55145 7.61355C3.15575 8.82056 3.0463 9.96449 3.01263 10.9612C3 11.407 3 11.4701 3 12Z" fill="#0062B5"/>
<path d="M17.0712 9.71836H16.3692V11.5306H13.4937V9.71836H12.7917C12.6117 9.73636 12.4767 9.89374 12.4902 10.0781V13.9094C12.4767 14.0938 12.6117 14.2512 12.7917 14.2692H13.4937V12.3175H16.3692V14.2647H17.0712C17.2557 14.2467 17.3862 14.0893 17.3727 13.9049V10.0736C17.3862 9.88924 17.2512 9.73186 17.0712 9.71387" fill="white"/>
<path d="M11.3159 9.71826H10.6139V13.2033L8.49891 10.4198C8.14791 10.015 7.90491 9.71826 7.34241 9.71826H6.62691V13.9093C6.61341 14.0937 6.74841 14.2511 6.92841 14.2691H7.63041V10.766L9.75891 13.5316C10.1189 13.9453 10.4384 14.2691 10.9604 14.2691H11.6174V10.078C11.6309 9.89363 11.4959 9.73624 11.3159 9.71826Z" fill="white"/>
</g>
</g>
</g>
</g>
<defs>
<clipPath id="clip0_55072_5526">
<rect width="24" height="24" fill="white"/>
</clipPath>
<clipPath id="clip1_55072_5526">
<rect width="18" height="18" fill="white" transform="translate(3 3)"/>
</clipPath>
</defs>
</svg>
