<svg width="24" height="24" viewBox="0 0 24 24" fill="none" xmlns="http://www.w3.org/2000/svg">
<g clip-path="url(#clip0_55072_5516)">
<path d="M13.6642 14.5443C14.4868 15.0321 15.31 15.5205 16.1326 16.0083C16.3869 16.1587 16.6401 16.3117 16.8938 16.4622C17.0363 16.5469 17.1002 16.5979 16.8944 16.7159C15.7849 17.3524 14.7104 18.0484 13.6009 18.6861C13.1187 18.9631 12.642 19.2605 12.1775 19.5714C12.027 19.6721 11.9121 19.6579 11.7616 19.5677C10.219 18.6437 8.6715 17.7283 7.12646 16.8087C6.82851 16.6312 6.83158 16.6023 7.12768 16.4242C8.17512 15.795 9.22196 15.1642 10.2688 14.5344C11.3727 15.2016 12.4767 15.8681 13.6642 16.5857V14.5436V14.5443Z" fill="#D4B02B"/>
<path d="M14.3789 6.4982C14.5847 6.23219 14.9029 6.13144 15.1732 5.96372C15.9227 5.49868 16.6815 5.04899 17.4383 4.59499C17.4881 4.56488 17.5501 4.55506 17.6067 4.5354C17.6079 5.69526 17.6085 6.85574 17.6122 8.0156C17.6122 8.13355 17.5759 8.26318 17.6821 8.36148C17.652 8.54332 17.8167 8.57711 17.9143 8.63546C18.8094 9.16994 19.7143 9.68905 20.5812 10.2702C20.6667 10.3273 20.8159 10.2868 20.8404 10.4391C19.7875 11.0707 18.7351 11.7028 17.6821 12.3344C17.6527 12.3344 17.6232 12.3344 17.5937 12.3344C16.7945 11.8577 15.9916 11.3877 15.1984 10.9011C14.9343 10.7389 14.6332 10.6296 14.4188 10.3894C14.4465 10.2874 14.5393 10.2585 14.6167 10.2119C15.5038 9.67615 16.3914 9.14168 17.2774 8.60413C17.5642 8.43028 17.5667 8.41369 17.2804 8.24045C16.3153 7.65683 15.3465 7.07813 14.3795 6.49758L14.3789 6.4982Z" fill="#2ABAEB"/>
<path d="M6.36627 12.4468C7.25889 12.9733 8.15335 13.4974 9.04353 14.0281C9.59274 14.3562 9.58353 14.3507 9.03493 14.6781C8.23998 15.1517 7.45117 15.6358 6.66912 16.131C6.44489 16.2729 6.27473 16.2888 6.03759 16.1402C5.14189 15.5781 4.23022 15.0424 3.32531 14.4944C3.24298 14.4447 3.12565 14.4256 3.12012 14.2941C3.18585 14.269 3.25711 14.2524 3.31609 14.2167C4.22961 13.6614 5.14128 13.1036 6.05357 12.5457C6.15001 12.4868 6.24954 12.4407 6.36627 12.4468Z" fill="#2189C9"/>
<path d="M10.2816 14.4934C10.2465 13.1751 10.2521 11.8567 10.2816 10.5383C10.3964 10.5383 10.4898 10.5826 10.5893 10.6434C11.5041 11.2018 12.4231 11.7529 13.3422 12.3052C13.446 12.3678 13.5658 12.4133 13.5633 12.565C12.9459 12.9385 12.3334 13.3213 11.7087 13.6819C11.2344 13.9546 10.7927 14.2851 10.2816 14.4934Z" fill="#2ABAEB"/>
<path d="M10.2858 6.3785C10.666 6.01972 11.1508 5.82314 11.582 5.54423C12.1705 5.16273 12.78 4.81317 13.3814 4.45195C13.4987 4.38191 13.6413 4.2443 13.64 4.54287C13.6339 5.8084 13.6314 7.07392 13.6271 8.33945C13.6063 8.34253 13.586 8.3456 13.5651 8.34867C13.5 8.32226 13.4299 8.30383 13.3703 8.26757C12.3413 7.63911 11.3136 7.00881 10.2852 6.37911L10.2858 6.3785Z" fill="#2ABAEB"/>
<path d="M13.565 8.34808C13.5859 8.34501 13.6062 8.34194 13.6271 8.33887C13.6283 9.75123 13.6295 11.1636 13.6308 12.5753C13.6087 12.5716 13.5859 12.5686 13.5638 12.5649C13.5656 12.4131 13.4465 12.3671 13.3426 12.305C12.4242 11.7527 11.5046 11.2017 10.5898 10.6432C10.4903 10.5824 10.3969 10.5376 10.282 10.5382C10.2802 10.4804 10.2777 10.4221 10.2759 10.3643C10.3785 10.3213 10.4878 10.29 10.5818 10.2335C11.3362 9.7801 12.0882 9.32242 12.8407 8.86536C13.0951 8.71116 13.401 8.62945 13.5656 8.34808H13.565Z" fill="#2189C9"/>
<path d="M13.5639 12.5654C13.586 12.5691 13.6087 12.5722 13.6308 12.5759C13.6419 13.232 13.6529 13.8881 13.664 14.5442C13.664 15.1942 13.664 15.8441 13.664 16.5862C12.4765 15.8687 11.3725 15.2021 10.2686 14.535C10.2735 14.5209 10.2778 14.5073 10.2821 14.4932C10.7926 14.2856 11.2349 13.9551 11.7092 13.6823C12.3346 13.3223 12.9464 12.9389 13.5639 12.5654Z" fill="#0F6AB2"/>
<path d="M13.5653 8.34798C13.4007 8.62934 13.0947 8.71043 12.8404 8.86524C12.0878 9.32231 11.3365 9.77999 10.5815 10.2334C10.4875 10.2899 10.3775 10.3212 10.2755 10.3642C10.267 9.03541 10.2424 7.70661 10.2854 6.37842C11.3138 7.00811 12.3416 7.63842 13.3706 8.26688C13.4302 8.30312 13.5002 8.32155 13.5653 8.34798Z" fill="#0F6AB2"/>
<path d="M17.6821 12.3344C18.7351 11.7029 19.7875 11.0707 20.8404 10.4392C20.9185 10.5363 20.8969 10.6518 20.8976 10.7617C20.8988 11.8639 20.9 12.966 20.8976 14.0681C20.8976 14.1731 20.9388 14.3003 20.8006 14.3624C20.7704 14.2653 20.6869 14.2204 20.6088 14.1738C19.7174 13.6393 18.8236 13.1079 17.9334 12.5703C17.8363 12.5114 17.6914 12.4911 17.6821 12.3338V12.3344Z" fill="#243F76"/>
<path d="M3.11185 10.3791C3.10939 9.11231 3.10755 7.84555 3.10693 6.57878C3.10693 6.55052 3.12782 6.52289 3.13888 6.49463C4.16052 7.10712 5.18215 7.71961 6.20441 8.33026C6.26154 8.36466 6.29226 8.41258 6.31191 8.47217C6.14605 8.57231 5.98141 8.67244 5.81492 8.77135C4.91431 9.30766 4.01308 9.84275 3.11246 10.3791H3.11185Z" fill="#2ABAEB"/>
<path d="M17.6822 12.3345C17.6914 12.4917 17.8364 12.512 17.9335 12.571C18.8236 13.1079 19.7169 13.6399 20.6089 14.1744C20.687 14.2211 20.7705 14.2659 20.8006 14.363C20.3662 14.7144 19.8613 14.9522 19.3894 15.2439C18.8212 15.5954 18.2444 15.9314 17.6712 16.2742C17.6485 16.2736 17.6251 16.2729 17.6018 16.2723C17.6018 16.2723 17.5963 16.2711 17.5963 16.2705C17.5975 14.9761 17.5987 13.6817 17.5999 12.3867C17.5981 12.3689 17.5955 12.3517 17.5938 12.3345C17.6233 12.3345 17.6528 12.3345 17.6822 12.3345Z" fill="#2189C9"/>
<path d="M3.11182 10.379C4.01243 9.84326 4.91365 9.30755 5.81428 8.77125C5.98075 8.67233 6.14539 8.57158 6.31127 8.47207L6.33461 8.46899C6.37393 9.75848 6.35857 11.048 6.34014 12.3375C6.27441 12.3147 6.2013 12.3037 6.14295 12.2687C5.67481 11.9867 5.21591 11.6869 4.74042 11.4184C4.19489 11.11 3.69175 10.7291 3.11243 10.4803C3.11243 10.4465 3.11243 10.4134 3.11182 10.3796V10.379Z" fill="#243F76"/>
<path d="M17.6824 8.36099C17.5768 8.2627 17.6131 8.13369 17.6125 8.01512C17.6087 6.85526 17.6081 5.69477 17.6069 4.53491C17.8427 4.55764 18.0056 4.7272 18.1954 4.83963C19.0204 5.32618 19.84 5.82195 20.6626 6.3128C20.78 6.38283 20.8923 6.44242 20.6983 6.55792C19.6925 7.15751 18.6881 7.75955 17.683 8.36038L17.6824 8.36099Z" fill="#2189C9"/>
<path d="M6.32764 4.56494C6.60286 4.56801 6.78102 4.77504 6.99419 4.89914C7.79406 5.36358 8.58163 5.84828 9.37412 6.32562C9.48655 6.3932 9.64505 6.44972 9.42143 6.58364C8.42804 7.17894 7.43528 7.77546 6.4419 8.37074C6.41671 8.3861 6.38539 8.39163 6.35713 8.40146C6.3559 7.76193 6.35958 7.12181 6.3516 6.48228C6.34361 5.84337 6.38539 5.20323 6.32764 4.56494Z" fill="#243F76"/>
<path d="M17.5999 12.3867C17.5987 13.6811 17.5975 14.9755 17.5963 16.2706C17.1422 16.1059 16.7694 15.7975 16.3566 15.561C15.7822 15.2323 15.2237 14.8754 14.6573 14.532C14.3563 14.3495 14.3575 14.3532 14.6468 14.1787C15.6323 13.5834 16.6158 12.9845 17.5999 12.3873V12.3867Z" fill="#2ABAEB"/>
<path d="M6.32768 4.56507C6.38481 5.20337 6.34304 5.8435 6.35164 6.48241C6.35962 7.12193 6.35594 7.76207 6.35718 8.40158C6.3498 8.42431 6.34182 8.44643 6.33444 8.46917L6.3111 8.47224C6.29144 8.41265 6.26072 8.36411 6.20359 8.33033C5.18133 7.71906 4.16031 7.10657 3.13867 6.49408C3.39669 6.22623 3.74195 6.09231 4.05096 5.90555C4.80536 5.45033 5.54625 4.97237 6.32768 4.56445V4.56507Z" fill="#0F6AB2"/>
<path d="M3.11246 10.4797C3.69178 10.7285 4.19492 11.1094 4.74044 11.4178C5.21594 11.6869 5.67423 11.9861 6.14298 12.2681C6.20133 12.3031 6.27382 12.3148 6.34017 12.3369C6.34939 12.3737 6.35799 12.41 6.36721 12.4462C6.25048 12.4401 6.15096 12.4862 6.05451 12.5451C5.14284 13.103 4.23055 13.6608 3.31703 14.2161C3.25806 14.2524 3.18679 14.2683 3.12106 14.2935C3.09956 13.0219 3.08297 11.7502 3.11307 10.4785L3.11246 10.4797Z" fill="#0F6AB2"/>
<path d="M14.3793 6.49829C15.3469 7.07884 16.3151 7.65754 17.2802 8.24116C17.5665 8.4144 17.564 8.43038 17.2771 8.60484C16.3913 9.1424 15.5036 9.67686 14.6165 10.2126C14.5391 10.2592 14.4469 10.2881 14.4186 10.3901C14.3996 10.3446 14.3646 10.2986 14.3646 10.2531C14.3713 9.00171 14.3253 7.7497 14.3787 6.49829H14.3793Z" fill="#0F6AB2"/>
<path d="M17.6021 16.2717C17.6253 16.2717 17.6481 16.2729 17.6714 16.2736C17.6474 16.3111 17.6241 16.308 17.6021 16.2717Z" fill="#2ABAEB"/>
</g>
<defs>
<clipPath id="clip0_55072_5516">
<rect width="24" height="24" fill="white"/>
</clipPath>
</defs>
</svg>
