<svg width="24" height="24" viewBox="0 0 24 24" fill="none" xmlns="http://www.w3.org/2000/svg">
<g clip-path="url(#clip0_55072_5513)">
<path fill-rule="evenodd" clip-rule="evenodd" d="M16.9585 15.1762L18.0793 14.7555V13.0487L16.9585 13.4733V15.1762ZM20.1067 10.5836V11.9007L19.367 12.1779V16.3591L21.1227 15.697V11.5189L20.3861 11.7952V10.4788L20.1067 10.5836Z" fill="#0085CC"/>
<path fill-rule="evenodd" clip-rule="evenodd" d="M15.8411 12.1866L14.5713 12.6631L13.3061 13.1405L12.0409 13.6139L10.7704 13.2639L9.50054 12.9037V12.9053L8.23537 12.5498V12.5482L6.97021 12.1951V13.8981L6.97099 13.8988V15.601L8.23616 15.9611L9.50132 16.315L10.7711 16.669L12.0402 17.0244L13.3053 16.551L14.5721 16.0697L15.8411 15.5971V13.8942L16.9619 13.4742V11.7659L15.8411 12.1866ZM16.3534 9.72999L18.6431 10.3742L20.8459 9.54526L18.5546 8.90259L16.3534 9.72999Z" fill="#0085CC"/>
<path fill-rule="evenodd" clip-rule="evenodd" d="M11.687 6.97534L10.22 7.52875L8.7484 8.07905L7.28299 8.63013L5.81602 9.18277L4.3444 9.73385L2.87744 10.2849L4.40572 10.7165L5.92935 11.1434L7.45763 11.5687L8.98591 11.998L10.5126 12.4279L12.0409 12.8556L13.5079 12.3045L14.9749 11.7527L13.4466 11.3242L11.9229 10.8942L10.3947 10.4658L8.86716 10.0412L7.40019 10.5923L5.87269 10.1647L5.87346 10.1638L7.40019 10.5923L8.86716 10.0412L7.33965 9.61277L7.34043 9.61199L8.86716 10.0412L10.3955 10.465L11.9229 10.8942H11.9245L13.4466 11.3242L14.9749 11.7527L16.441 11.2016L17.9134 10.649L14.8561 9.79129L14.8569 9.79051L13.3332 9.36672L11.8058 8.9375L14.8569 9.79051L17.7939 8.68835L14.7389 7.83378L14.7374 7.83456L13.2153 7.40533L13.2137 7.40612L11.687 6.97534ZM13.2711 8.38564L13.369 8.34916L13.1819 8.41901L13.2711 8.38564ZM8.81049 9.06091L8.81205 9.06013L10.338 9.48858L8.81049 9.06091Z" fill="#0085CC"/>
</g>
<defs>
<clipPath id="clip0_55072_5513">
<rect width="24" height="24" fill="white"/>
</clipPath>
</defs>
</svg>
