<svg width="24" height="24" viewBox="0 0 24 24" fill="none" xmlns="http://www.w3.org/2000/svg">
<path d="M20 4H4V20H20V4Z" fill="#FFCC00"/>
<path fill-rule="evenodd" clip-rule="evenodd" d="M18.2962 12.122C18.2959 12.1219 18.183 12.0506 18.183 12.0506C17.7993 11.6675 17.2649 11.5011 16.5503 11.5426C15.9557 11.5795 15.4839 11.8147 15.1236 12.0346C15.1236 12.029 15.123 12.0238 15.123 12.0181C15.123 11.8317 15.1443 11.6299 15.1649 11.4337C15.1863 11.2344 15.2075 11.0316 15.2075 10.8394C15.2075 10.6434 15.1853 10.4579 15.1176 10.299C15.1006 10.2578 15.0632 10.2338 15.0158 10.2338C14.8233 10.238 14.4481 10.3696 14.3573 10.4493L14.3077 10.5578C14.304 10.7705 14.2576 11.3648 14.2107 11.4371C14.2123 11.4343 14.1848 11.5086 14.1848 11.5086C14.1043 12.3578 14.1023 13.1035 14.1773 13.7441C14.1858 13.8076 14.309 13.9048 14.4042 13.9395C14.5081 13.978 14.8354 13.8904 15.0234 13.8189C15.0218 13.8196 15.0949 13.8083 15.0949 13.8083C15.1547 13.8017 15.1896 13.7516 15.1864 13.6839C15.1863 13.6825 15.1908 13.4995 15.1908 13.4995C15.3272 12.9462 15.8781 12.2871 16.5291 12.1875C16.8973 12.1293 17.1881 12.2231 17.4177 12.4741C17.449 12.519 17.5159 12.9166 17.2732 13.3739C17.0924 13.7129 16.7311 13.9974 16.2561 14.1763C15.8062 14.3466 15.3105 14.4162 14.6994 14.3945C14.6745 14.3782 14.1268 14.0079 14.1268 14.0079C13.6427 13.6677 13.0408 13.2442 12.494 13.0366C12.3988 13.0007 12.2262 12.8575 12.1232 12.7722L12.0666 12.7258C11.7519 12.4731 11.1527 12.074 10.671 11.753C10.671 11.753 10.4539 11.6074 10.4114 11.5795C10.412 11.5611 10.4129 11.5251 10.4129 11.5251C10.4267 11.51 10.7286 11.3284 10.7286 11.3284C11.1521 11.0808 11.3478 10.9594 11.3897 10.8965C11.3811 10.9063 11.4462 10.8633 11.4462 10.8633C11.4493 10.8616 12.4953 10.2695 12.4953 10.2695C13.5026 9.71553 14.6445 9.08744 15.2439 8.46668C15.2447 8.46592 15.2731 8.37226 15.2731 8.37226L15.2861 8.28762C15.3255 8.15516 15.3284 8.05295 15.2952 7.935C15.2861 7.90124 15.2552 7.86243 15.2139 7.85464C14.746 7.80865 14.1418 8.089 13.5922 8.60419C13.4684 8.72107 13.3641 8.7776 13.2541 8.83764L13.1699 8.8847C12.5638 9.22892 11.1984 10.0759 10.4844 10.5334C10.5315 9.76472 10.6736 8.67202 10.8481 7.76068L10.829 7.65189C10.8267 7.64808 10.7552 7.51409 10.7552 7.51409L10.6991 7.41524L10.6829 7.41096C10.5405 7.33869 10.4241 7.36833 10.3385 7.39049C10.339 7.39049 10.1954 7.44274 10.1954 7.44274L10.0056 7.51164C9.96819 7.51928 9.94084 7.5419 9.92617 7.57872C9.58516 8.40343 9.30053 9.76014 9.23346 10.8457C8.55113 10.4113 7.9206 10.0999 7.61213 9.94898L7.60296 9.94455L7.56584 9.9363C7.45553 9.92179 7.3194 9.84035 7.18831 9.76075C7.17548 9.75296 6.92965 9.59315 6.92965 9.59315L6.53288 9.33937C6.53685 9.34152 6.42898 9.3157 6.42898 9.3157C6.25817 9.34472 5.93199 9.56458 5.83497 9.71385C5.82168 9.73371 5.81709 9.75541 5.81709 9.77771C5.81709 9.80872 5.82641 9.84096 5.83497 9.87121L5.85269 9.95218L5.87102 10.0011C6.06094 10.1956 6.54006 10.5204 7.01017 10.7731L7.55499 11.0617L8.38873 11.5173C8.38903 11.5211 8.53158 11.6299 8.53158 11.6299C8.53219 11.6299 8.62981 11.6867 8.62981 11.6867C8.62981 11.6867 8.64036 11.693 8.64662 11.6977C8.42447 11.8462 7.13072 12.7108 7.13072 12.7108L6.33258 13.239C6.25756 13.2905 5.94192 13.432 5.87316 13.4598C5.69975 13.5298 5.56944 13.6378 5.51474 13.7554L5.49365 13.8014L5.51504 13.8319L5.5757 13.8781C5.5734 13.8778 5.65789 13.9317 5.65789 13.9317L5.74559 13.9919C5.74758 13.9928 5.82886 14.0044 5.82886 14.0044C5.96881 14.0101 6.17674 13.9302 6.56496 13.7604C6.9214 13.6022 7.8902 13.018 8.30409 12.7686L8.48085 12.6623C8.55388 12.6682 8.63486 12.6066 8.7059 12.5522C8.78932 12.4861 8.97021 12.3753 9.08022 12.3268C9.08312 12.3255 9.14652 12.2907 9.20504 12.258C9.20443 12.2766 9.20397 12.3055 9.20397 12.3055C9.22261 13.5722 9.29579 14.493 9.43375 15.2025L9.4365 15.2154L9.4498 15.2438C9.51824 15.3445 9.5957 15.6446 9.664 15.9092L9.82213 16.4377C9.82519 16.4436 9.86689 16.4874 9.86689 16.4874C9.95673 16.5478 10.231 16.6537 10.4146 16.6323L10.4603 16.6265L10.4893 16.5621C10.5046 16.483 10.5101 16.4054 10.5101 16.3202C10.5101 16.2234 10.5031 16.1167 10.4942 15.9865L10.482 15.7955C10.4241 14.9113 10.3659 13.6338 10.3659 12.7851C10.3659 12.7614 10.3662 12.7402 10.3665 12.7174C10.5162 12.8121 11.174 13.2261 11.174 13.2261C12.2923 13.9517 13.9818 15.0481 15.0028 15.338C15.056 15.3538 15.1117 15.3412 15.151 15.304C15.1526 15.3023 15.3085 15.2032 15.3085 15.2032L15.3371 15.1912C15.3961 15.1634 15.436 15.0646 15.4425 14.957C16.303 14.914 17.5036 14.5827 18.1457 13.7751C18.3945 13.4619 18.5063 13.0791 18.5063 12.7501C18.5063 12.4817 18.4316 12.2494 18.2962 12.122Z" fill="black"/>
</svg>
