<svg width="24" height="24" viewBox="0 0 24 24" fill="none" xmlns="http://www.w3.org/2000/svg">
<g clip-path="url(#clip0_55072_4941)">
<path fill-rule="evenodd" clip-rule="evenodd" d="M12.6047 6.0712C12.9047 6.15433 13.1912 6.29683 13.4792 6.4227C13.6547 6.49949 13.7237 6.61587 13.6179 6.82408C13.4109 7.23258 13.2242 7.65216 13.0239 8.07808C12.8634 7.82712 12.8424 7.63949 12.5814 7.40833C11.5914 6.53116 9.7479 6.72195 9.01215 7.99654C8.6904 8.55387 8.71515 9.0732 9.1659 9.52049C9.6219 9.97174 10.1387 10.3541 10.6164 10.7824C11.2982 11.3936 11.6777 12.1639 11.6589 13.1257C11.6484 13.6902 11.4317 14.1652 11.0927 14.5903C10.6622 15.1302 10.1304 15.5237 9.54015 15.8633C9.71115 15.5039 9.9099 15.1888 10.0172 14.8429C10.2602 14.056 9.9249 13.4155 9.40665 12.9065C8.9094 12.418 8.3604 11.9802 7.7994 11.5733C6.5094 10.6367 6.0744 8.54991 7.4139 7.15262C8.1639 6.36966 9.2604 5.85904 10.3254 5.79016C10.8092 5.75058 11.8464 5.86141 12.6047 6.0712ZM8.98365 17.8425C6.8559 18.2225 5.37915 17.9011 3.8799 15.9148C3.7944 15.8024 3.7374 15.576 3.78465 15.4564C4.1334 14.5911 4.51215 13.7401 4.8834 12.8851C4.9074 12.8297 4.9524 12.7822 4.9944 12.722C5.05515 13.1511 5.08965 13.558 5.1744 13.9522C5.49465 15.4596 6.5709 16.3732 8.0274 16.4373C9.91215 16.5204 11.1827 15.4778 12.0902 13.8897C12.5957 13.0054 12.9414 12.0174 13.3427 11.0682C13.8714 9.81737 14.3837 8.55862 14.9027 7.30224C15.0774 6.88029 15.1209 6.46624 14.7654 6.02924C14.9574 6.01895 15.0909 6.0047 15.2244 6.00629C15.6714 6.01183 16.1207 5.99441 16.5639 6.04191C17.0739 6.09654 17.2337 6.41558 17.0349 6.91274C16.6937 7.76774 16.3419 8.6172 15.9962 9.46983C15.8192 9.90683 15.6459 10.3462 15.4607 10.8117C16.0082 10.5235 16.5077 10.237 17.0259 9.99312C17.5912 9.72221 18.2051 9.58263 18.8259 9.58383C19.9607 9.58937 20.3207 10.328 20.2157 11.3342C20.0514 12.9017 19.4619 14.3402 19.0022 15.8174C18.8867 16.1871 18.7442 16.5481 18.6384 16.9202C18.5394 17.2685 18.5837 17.5987 18.9437 17.8805C18.3467 17.8805 17.8344 17.9169 17.3289 17.8726C16.6284 17.8092 16.3727 17.3287 16.6307 16.6368C16.9637 15.7422 17.3327 14.8603 17.6297 13.9522C17.8224 13.3617 17.9649 12.741 18.0392 12.1211C18.1194 11.4482 17.7639 11.1901 17.1527 11.3928C16.2767 11.681 15.6272 12.3048 15.0662 13.0284C14.17 14.1836 13.4773 15.499 13.0209 16.9123C12.8979 17.2907 13.0322 17.5757 13.3029 17.8797C12.7202 17.8797 12.1899 17.9145 11.6657 17.8686C11.1669 17.8251 10.9997 17.5567 10.9127 16.8086C10.3149 17.3168 9.70365 17.7135 8.98365 17.8425Z" fill="#0071BB"/>
</g>
<defs>
<clipPath id="clip0_55072_4941">
<rect width="24" height="24" fill="white"/>
</clipPath>
</defs>
</svg>
