<svg width="24" height="24" viewBox="0 0 24 24" fill="none" xmlns="http://www.w3.org/2000/svg">
<g clip-path="url(#clip0_55072_4930)">
<g clip-path="url(#clip1_55072_4930)">
<path d="M12 21C16.9706 21 21 16.9706 21 12C21 7.02944 16.9706 3 12 3C7.02944 3 3 7.02944 3 12C3 16.9706 7.02944 21 12 21Z" fill="#304999"/>
<mask id="mask0_55072_4930" style="mask-type:luminance" maskUnits="userSpaceOnUse" x="5" y="5" width="14" height="14">
<path fill-rule="evenodd" clip-rule="evenodd" d="M5.53564 5.58594H18.3589V18.5463H5.53564V5.58594Z" fill="white"/>
</mask>
<g mask="url(#mask0_55072_4930)">
<path fill-rule="evenodd" clip-rule="evenodd" d="M16.1262 10.6984C15.7419 11.0787 15.3805 11.4238 15.0345 11.7834C14.7933 12.0354 14.593 12.0223 14.3532 11.7762C13.6728 11.0818 12.9694 10.4095 12.2971 9.708C12.0712 9.4713 11.9335 9.4812 11.7094 9.7044C10.9066 10.5022 10.0849 11.2812 9.15296 12.1812C10.1043 13.078 10.9692 13.8894 11.8278 14.7075C12.0258 14.8969 12.1347 14.7507 12.2598 14.6247C12.9762 13.9083 13.6998 13.2 14.4045 12.4723C14.6106 12.259 14.8297 12.1717 15.1182 12.1776C15.7257 12.1893 16.3336 12.1915 16.9411 12.1776C17.257 12.1699 17.3664 12.273 17.3344 12.6028C17.0491 15.5629 14.4738 18.0105 11.0799 17.4246C8.52206 16.9831 6.68201 14.8326 6.66131 12.232C6.63926 9.38355 8.71871 7.2357 11.2918 6.89955C11.9313 6.81585 12.4906 7.0836 12.9415 7.52325C14.0026 8.5614 15.0462 9.61845 16.1271 10.6984" fill="white"/>
<path fill-rule="evenodd" clip-rule="evenodd" d="M16.4035 10.4245C15.3451 9.33778 14.3344 8.28793 13.3102 7.25203C12.9084 6.84613 12.4183 6.60268 11.7222 6.59998C12.8755 6.16888 13.9456 6.15313 14.8501 6.81238C15.7362 7.45768 16.4949 8.28118 17.2815 9.05473C17.3602 9.13213 17.3071 9.44713 17.2117 9.57673C17.0065 9.85663 16.7343 10.0861 16.4035 10.4245Z" fill="white"/>
</g>
</g>
</g>
<defs>
<clipPath id="clip0_55072_4930">
<rect width="24" height="24" fill="white"/>
</clipPath>
<clipPath id="clip1_55072_4930">
<rect width="18" height="18" fill="white" transform="translate(3 3)"/>
</clipPath>
</defs>
</svg>
