<svg width="24" height="24" viewBox="0 0 24 24" fill="none" xmlns="http://www.w3.org/2000/svg">
<g clip-path="url(#clip0_55072_4948)">
<path d="M22.7905 12.2173L22.5996 12.099C21.9457 11.4343 21.0193 11.152 19.7931 11.2248C18.7759 11.2886 17.9584 11.6983 17.3408 12.0717C17.3408 12.0625 17.3408 12.0534 17.3408 12.0443C17.3408 11.7257 17.3771 11.3705 17.4134 11.0336C17.4497 10.6876 17.486 10.3416 17.486 10.0138C17.486 9.68601 17.4497 9.35816 17.3316 9.08503C17.3044 9.01217 17.2408 8.97569 17.1591 8.97569C16.8321 8.97569 16.1872 9.21253 16.0328 9.34904L15.951 9.53116C15.951 9.89539 15.8693 10.9243 15.7876 11.0427L15.7422 11.1702C15.6059 12.6361 15.5969 13.9201 15.724 15.0219C15.7422 15.1311 15.951 15.295 16.1145 15.3588C16.2963 15.4225 16.8594 15.2768 17.1773 15.1494L17.2954 15.1311C17.3953 15.122 17.4588 15.031 17.4497 14.9126V14.5939C17.6859 13.6378 18.6304 12.5087 19.7476 12.3357C20.3834 12.2355 20.883 12.3995 21.2736 12.8274C21.328 12.9094 21.4461 13.5923 21.0283 14.3754C20.7195 14.9581 20.0929 15.4499 19.2844 15.7595C18.5124 16.0508 17.6586 16.1692 16.6141 16.1327C16.5687 16.1055 15.6331 15.468 15.6331 15.468C14.7976 14.8853 13.7621 14.1477 12.8266 13.7926C12.6631 13.7288 12.3634 13.483 12.1908 13.3373L12.0908 13.2554C11.5459 12.8184 10.5195 12.1354 9.69301 11.5799C9.69301 11.5799 9.32065 11.3249 9.24798 11.2794C9.24798 11.2522 9.24798 11.1884 9.24798 11.1884C9.27522 11.1611 9.79291 10.8515 9.79291 10.8515C10.5196 10.4235 10.8556 10.2141 10.9283 10.1049C10.9101 10.1231 11.0282 10.0502 11.0282 10.0502L12.8356 9.03041C14.5704 8.07423 16.5323 6.99066 17.5587 5.92533L17.6041 5.76145L17.6313 5.61572C17.704 5.3881 17.704 5.21511 17.6495 5.00573C17.6313 4.9511 17.5769 4.87824 17.5133 4.86912C16.714 4.78713 15.6695 5.26974 14.7249 6.16207C14.516 6.36243 14.3343 6.46256 14.1436 6.56278L13.9983 6.64467C12.9537 7.23652 10.6104 8.70257 9.38417 9.48565C9.46597 8.16534 9.7112 6.28044 10.0109 4.70524L9.97462 4.51401L9.84748 4.27727L9.75663 4.10427H9.72939C9.48417 3.97678 9.28427 4.02229 9.13894 4.05867L8.89371 4.14978L8.56678 4.26815C8.50316 4.27727 8.45773 4.32277 8.4305 4.38652C7.84014 5.80696 7.35873 8.1471 7.24064 10.0138C6.06898 9.26715 4.98817 8.72993 4.45228 8.46583H4.43409L4.37048 8.44758C4.17972 8.42032 3.94364 8.28371 3.72565 8.1471C3.69841 8.12895 3.28062 7.85573 3.28062 7.85573L2.59941 7.41864L2.4177 7.37313C2.12705 7.42776 1.56392 7.80111 1.40043 8.06521C1.38227 8.10159 1.37319 8.13798 1.37319 8.17446C1.37319 8.22908 1.39135 8.28371 1.40043 8.33833L1.42768 8.47494L1.46402 8.55683C1.791 8.8938 2.61751 9.44927 3.4168 9.88627L4.35238 10.3871L5.78747 11.1702L6.03269 11.3614L6.20526 11.4616C6.20526 11.4616 6.22345 11.4707 6.23249 11.4798C5.85099 11.7347 3.62575 13.2281 3.62575 13.2281L2.25422 14.1387C2.12706 14.2297 1.58209 14.4664 1.46402 14.521C1.16429 14.6394 0.94631 14.8306 0.8464 15.031L0.810059 15.1129L0.8464 15.1675L0.955386 15.2495L1.09162 15.3406L1.24604 15.4499L1.39134 15.468C1.62749 15.4771 1.99082 15.3406 2.65388 15.0491C3.26243 14.776 4.93369 13.7744 5.64214 13.3373L5.94184 13.1552C6.06898 13.1643 6.20526 13.0641 6.33239 12.964C6.47772 12.8456 6.78657 12.6544 6.97732 12.5725C6.97732 12.5725 7.09531 12.5087 7.19521 12.4541C7.19521 12.4905 7.19521 12.536 7.19521 12.536C7.22255 14.7214 7.34968 16.3057 7.58577 17.5259V17.5441L7.6131 17.5896C7.7311 17.7626 7.86738 18.2816 7.98547 18.737L8.25793 19.6475L8.33059 19.7295C8.48497 19.8296 8.95733 20.0117 9.27522 19.9753H9.35693L9.4115 19.8569C9.43874 19.7203 9.44779 19.5838 9.44779 19.4381C9.44779 19.2742 9.43874 19.0829 9.42055 18.8644L9.40236 18.5366C9.30246 17.016 9.20256 14.8124 9.20256 13.3465V13.2281C9.46598 13.392 10.5922 14.1022 10.5922 14.1022C12.5177 15.3496 15.4152 17.2436 17.1681 17.7445C17.259 17.7718 17.3589 17.7445 17.4225 17.6899L17.695 17.5168L17.7494 17.4986C17.8493 17.453 17.922 17.28 17.9311 17.0979C19.4116 17.0251 21.4735 16.4514 22.5725 15.0583C22.9993 14.521 23.1901 13.8563 23.1901 13.2918C23.1901 12.8274 23.0629 12.4268 22.8267 12.2083L22.7905 12.2173Z" fill="#F8B500"/>
</g>
<defs>
<clipPath id="clip0_55072_4948">
<rect width="24" height="24" fill="white"/>
</clipPath>
</defs>
</svg>
