<svg width="24" height="24" viewBox="0 0 24 24" fill="none" xmlns="http://www.w3.org/2000/svg">
<g clip-path="url(#clip0_55072_4927)">
<path d="M22.3058 9.83952H22.9098C22.9492 9.83952 22.9806 9.81021 22.9806 9.77356V8.70745C22.9806 8.67048 22.9492 8.6402 22.9098 8.6402H22.0614C21.0805 8.6402 20.5599 8.93399 20.2632 9.55848L18.4182 13.7883C18.306 14.0406 18.1445 14.1604 17.8266 14.1604V8.70745C17.8266 8.67048 17.7946 8.6402 17.7549 8.6402H16.3995C16.3601 8.6402 16.3274 8.67048 16.3274 8.70745V15.2421C16.3274 15.3071 16.3844 15.36 16.4544 15.36H17.9744C18.9552 15.36 19.4038 15.066 19.7008 14.4433L21.5217 10.2661C21.6678 9.96983 21.8777 9.83952 22.3058 9.83952ZM4.1567 14.1894H1.86377V12.6138H4.1567C4.77447 12.6138 5.19162 12.9667 5.19162 13.4015C5.19162 13.837 4.77447 14.1894 4.1567 14.1894ZM5.73632 12.0007C6.27979 11.7894 6.73128 11.3128 6.73128 10.5261C6.73128 9.35229 5.65464 8.64014 4.35757 8.64014H0.349444C0.310384 8.64014 0.27832 8.67041 0.27832 8.70738V9.77382C0.27832 9.81015 0.310384 9.83952 0.349444 9.83952H4.07975C4.68248 9.83952 5.08908 10.1842 5.08908 10.608C5.08908 11.0327 4.68248 11.3768 4.07975 11.3768H1.86377V10.5847C1.86377 10.5481 1.83171 10.5181 1.79265 10.5181H0.349444C0.310384 10.5181 0.27832 10.5481 0.27832 10.5847V15.2931C0.27832 15.3299 0.310384 15.3599 0.349444 15.3599H4.29992C5.77642 15.3599 6.83349 14.7154 6.83349 13.4013C6.83349 12.7562 6.42651 12.2219 5.73632 12.0007ZM23.7086 15.2837L21.3849 12.5008C21.3778 12.4923 21.3683 12.4945 21.3641 12.5031L20.738 13.9353C20.7351 13.9445 20.7351 13.9544 20.7415 13.9617L21.7577 15.2375C21.8289 15.3254 21.9106 15.3601 22.0327 15.3601H23.6701C23.7175 15.3601 23.7374 15.3171 23.7086 15.2837ZM9.37937 10.518H8.0218C7.98242 10.518 7.95068 10.5483 7.95068 10.585V15.293C7.95068 15.3302 7.98242 15.3601 8.0218 15.3601H9.37944C9.41882 15.3601 9.45088 15.3302 9.45088 15.293V10.585C9.45088 10.5483 9.41882 10.518 9.37937 10.518Z" fill="#D71921"/>
<path d="M14.9454 8.6402H13.585C13.5459 8.6402 13.514 8.67048 13.514 8.70745V14.1604C13.195 14.1604 13.034 14.0407 12.9219 13.7883L11.0709 9.55849C10.7734 8.93399 10.2516 8.6402 9.26783 8.6402H7.98587C7.94638 8.6402 7.91455 8.67048 7.91455 8.70745V9.77389C7.91455 9.81022 7.94638 9.83959 7.98587 9.83959H9.0227C9.45191 9.83959 9.66203 9.96984 9.80928 10.2665L11.6351 14.4434C11.933 15.066 12.3821 15.3601 13.3659 15.3601H14.8908C14.9605 15.3601 15.0164 15.3073 15.0164 15.2423V8.70739C15.0164 8.67041 14.9846 8.6402 14.9454 8.6402Z" fill="#D71921"/>
</g>
<defs>
<clipPath id="clip0_55072_4927">
<rect width="24" height="24" fill="white"/>
</clipPath>
</defs>
</svg>
