<svg xmlns="http://www.w3.org/2000/svg" viewBox="1013 205 716 276" fill="none">
  <path
    fill="currentColor"
    fill-rule="evenodd"
    d="M 1517,297 1504,303 1499,308 1494,320 1494,457 1497,466 1504,474 1513,479 1526,480 1540,474 1546,467 1550,457 1550,321 1546,310 1538,302 1527,297 Z M 1459,299 1447,293 1381,294 1364,299 1352,305 1332,321 1324,331 1314,350 1308,376 1308,456 1312,467 1317,473 1328,479 1340,480 1351,476 1358,470 1364,456 1364,377 1368,366 1380,353 1388,349 1447,343 1459,337 1467,324 1467,312 Z M 1626,255 1618,260 1612,268 1609,280 1609,296 1597,297 1587,301 1582,305 1577,315 1577,326 1584,338 1594,343 1607,343 1609,345 1609,409 1615,437 1626,455 1636,465 1652,474 1676,480 1712,479 1718,476 1727,465 1729,457 1727,445 1720,435 1711,430 1681,428 1674,424 1668,417 1665,409 1665,345 1667,343 1711,343 1718,340 1724,335 1728,327 1729,318 1727,311 1720,302 1709,297 1666,297 1664,273 1658,262 1652,257 1642,253 1632,253 Z M 1520,209 1505,214 1497,221 1491,233 1490,245 1492,253 1500,265 1513,272 1525,273 1538,269 1547,261 1553,250 1554,237 1549,224 1542,216 1530,210 Z M 1032,216 1024,224 1017,236 1013,251 1013,261 1179,261 1190,266 1197,273 1201,281 1202,291 1197,304 1190,311 1180,316 1064,316 1049,319 1032,328 1020,342 1013,362 1013,435 1018,451 1023,459 1041,474 1054,479 1072,481 1208,481 1233,474 1252,462 1262,452 1273,435 1279,418 1281,397 1279,382 1271,361 1262,348 1247,335 1257,312 1260,284 1255,259 1240,233 1230,223 1217,214 1189,205 1057,205 1041,210 Z M 1069,377 1076,370 1197,370 1207,374 1216,382 1221,393 1221,404 1217,414 1209,422 1198,427 1076,427 1070,422 1069,418 Z"
  />
</svg>
